<?xml version="1.0" encoding="utf-8"?>
<!-- Generator: Adobe Illustrator 28.1.0, SVG Export Plug-In . SVG Version: 6.00 Build 0)  -->
<!DOCTYPE svg PUBLIC "-//W3C//DTD SVG 1.1//EN" "http://www.w3.org/Graphics/SVG/1.1/DTD/svg11.dtd" [
	<!ENTITY ns_extend "http://ns.adobe.com/Extensibility/1.0/">
	<!ENTITY ns_ai "http://ns.adobe.com/AdobeIllustrator/10.0/">
	<!ENTITY ns_graphs "http://ns.adobe.com/Graphs/1.0/">
	<!ENTITY ns_vars "http://ns.adobe.com/Variables/1.0/">
	<!ENTITY ns_imrep "http://ns.adobe.com/ImageReplacement/1.0/">
	<!ENTITY ns_sfw "http://ns.adobe.com/SaveForWeb/1.0/">
	<!ENTITY ns_custom "http://ns.adobe.com/GenericCustomNamespace/1.0/">
	<!ENTITY ns_adobe_xpath "http://ns.adobe.com/XPath/1.0/">
]>
<svg version="1.1" xmlns:x="&ns_extend;" xmlns:i="&ns_ai;" xmlns:graph="&ns_graphs;"
	 xmlns="http://www.w3.org/2000/svg" xmlns:xlink="http://www.w3.org/1999/xlink" x="0px" y="0px" viewBox="0 0 172.7 26.4"
	 style="enable-background:new 0 0 172.7 26.4;" xml:space="preserve">
<style type="text/css">
	.st0{fill:#E8E8E8;}
	.st1{fill:#48F7F5;}
</style>
<metadata>
	<sfw  xmlns="&ns_sfw;">
		<slices></slices>
		<sliceSourceBounds  bottomLeftOrigin="true" height="26.3" width="16383" x="-7958" y="25.7"></sliceSourceBounds>
	</sfw>
</metadata>
<g id="Layer_5">
	<g>
		<path class="st0" d="M27.7,0.1h17.8V4H32.3v6.8h11.7v3.7H32.3v11.5h-4.5V0.1z"/>
		<path class="st0" d="M46.5,0.1h4.1V4h-4.1V0.1z M46.5,7.2h4.1v18.7h-4.1V7.2z"/>
		<path class="st0" d="M55.1,17.6c0,0.7,0.1,1.4,0.3,2.1c0.2,0.7,0.5,1.3,0.9,1.8c0.4,0.5,0.9,0.9,1.6,1.2c0.6,0.3,1.4,0.4,2.2,0.4
			c1.2,0,2.2-0.3,2.9-0.8s1.3-1.3,1.6-2.3h3.9c-0.2,1-0.6,1.9-1.1,2.7c-0.5,0.8-1.2,1.5-1.9,2c-0.7,0.5-1.6,1-2.5,1.2
			c-0.9,0.3-1.9,0.4-2.9,0.4c-1.5,0-2.8-0.2-3.9-0.7c-1.1-0.5-2.1-1.2-2.9-2c-0.8-0.9-1.4-1.9-1.8-3.1c-0.4-1.2-0.6-2.5-0.6-4
			c0-1.3,0.2-2.6,0.6-3.8c0.4-1.2,1-2.2,1.8-3.1c0.8-0.9,1.7-1.6,2.8-2.2c1.1-0.5,2.4-0.8,3.8-0.8c1.5,0,2.8,0.3,4,0.9
			c1.2,0.6,2.1,1.4,2.9,2.4c0.8,1,1.3,2.2,1.7,3.5c0.3,1.3,0.4,2.7,0.3,4.1H55.1z M64.8,14.9c0-0.6-0.2-1.3-0.4-1.9
			c-0.2-0.6-0.5-1.1-0.9-1.6C63,11,62.5,10.6,62,10.3c-0.6-0.3-1.2-0.4-1.9-0.4c-0.7,0-1.4,0.1-2,0.4c-0.6,0.3-1.1,0.6-1.5,1
			c-0.4,0.4-0.8,1-1,1.6c-0.3,0.6-0.4,1.3-0.4,1.9H64.8z"/>
		<path class="st0" d="M69.6,0.1h4.1v25.8h-4.1V0.1z"/>
		<path class="st0" d="M93.1,25.8h-3.9v-2.5h-0.1c-0.6,1.1-1.4,1.9-2.4,2.3c-1.1,0.5-2.2,0.7-3.4,0.7c-1.5,0-2.8-0.3-3.8-0.8
			s-2-1.2-2.7-2.1c-0.7-0.9-1.3-1.9-1.6-3.2c-0.4-1.2-0.5-2.5-0.5-3.9c0-1.7,0.2-3.1,0.7-4.4c0.5-1.2,1.1-2.2,1.8-3
			c0.8-0.8,1.6-1.4,2.6-1.8c1-0.4,2-0.6,3-0.6c0.6,0,1.2,0.1,1.8,0.2c0.6,0.1,1.2,0.3,1.7,0.5c0.6,0.2,1.1,0.5,1.5,0.9
			c0.5,0.4,0.9,0.8,1.2,1.3H89V0.1h4.1V25.8z M78.7,16.7c0,0.8,0.1,1.6,0.3,2.3c0.2,0.8,0.5,1.5,0.9,2.1c0.4,0.6,1,1.1,1.6,1.4
			c0.7,0.4,1.4,0.5,2.3,0.5c0.9,0,1.7-0.2,2.4-0.6c0.7-0.4,1.2-0.9,1.6-1.5c0.4-0.6,0.7-1.3,0.9-2.1c0.2-0.8,0.3-1.6,0.3-2.4
			c0-2.1-0.5-3.7-1.4-4.8c-0.9-1.2-2.2-1.7-3.8-1.7c-1,0-1.8,0.2-2.4,0.6c-0.7,0.4-1.2,0.9-1.6,1.6c-0.4,0.6-0.7,1.4-0.9,2.2
			C78.8,15,78.7,15.9,78.7,16.7z"/>
		<path class="st0" d="M94.2,0.1h10.7c2,0,3.7,0.3,5.1,1c1.4,0.7,2.6,1.6,3.5,2.8c0.9,1.2,1.6,2.5,2,4.1c0.4,1.6,0.7,3.2,0.7,5
			c0,1.8-0.2,3.5-0.7,5c-0.4,1.6-1.1,2.9-2,4.1c-0.9,1.2-2.1,2.1-3.5,2.8c-1.4,0.7-3.2,1-5.1,1H94.2V0.1z M98.7,22.2h4.4
			c1.8,0,3.2-0.2,4.3-0.7c1.1-0.5,2-1.1,2.6-2c0.6-0.8,1.1-1.8,1.3-2.9c0.2-1.1,0.3-2.3,0.3-3.6c0-1.3-0.1-2.5-0.3-3.6
			c-0.2-1.1-0.7-2.1-1.3-2.9c-0.6-0.8-1.5-1.5-2.6-2c-1.1-0.5-2.6-0.7-4.3-0.7h-4.4V22.2z"/>
		<path class="st0" d="M126.5,26.4c-1.5,0-2.8-0.2-4-0.7c-1.2-0.5-2.2-1.2-3-2s-1.4-1.9-1.8-3.1c-0.4-1.2-0.6-2.5-0.6-4
			c0-1.4,0.2-2.7,0.6-3.9c0.4-1.2,1-2.2,1.8-3.1c0.8-0.9,1.8-1.5,3-2c1.2-0.5,2.5-0.7,4-0.7s2.8,0.2,4,0.7c1.2,0.5,2.2,1.2,3,2
			c0.8,0.9,1.4,1.9,1.8,3.1c0.4,1.2,0.6,2.5,0.6,3.9c0,1.4-0.2,2.8-0.6,4c-0.4,1.2-1,2.2-1.8,3.1s-1.8,1.5-3,2
			C129.3,26.1,128,26.4,126.5,26.4z M126.5,23.1c0.9,0,1.7-0.2,2.4-0.6s1.2-0.9,1.7-1.5c0.4-0.6,0.8-1.3,1-2.1
			c0.2-0.8,0.3-1.6,0.3-2.4c0-0.8-0.1-1.6-0.3-2.4c-0.2-0.8-0.5-1.5-1-2.1c-0.4-0.6-1-1.1-1.7-1.5s-1.5-0.6-2.4-0.6
			c-0.9,0-1.7,0.2-2.4,0.6c-0.7,0.4-1.2,0.9-1.7,1.5c-0.4,0.6-0.8,1.3-1,2.1c-0.2,0.8-0.3,1.6-0.3,2.4c0,0.8,0.1,1.6,0.3,2.4
			c0.2,0.8,0.5,1.5,1,2.1c0.4,0.6,1,1.1,1.7,1.5C124.8,22.9,125.5,23.1,126.5,23.1z"/>
		<path class="st0" d="M150.4,13.4c-0.2-1.2-0.6-2-1.4-2.6c-0.8-0.6-1.7-0.9-2.9-0.9c-0.5,0-1.1,0.1-1.7,0.3c-0.6,0.2-1.2,0.5-1.7,1
			c-0.5,0.5-0.9,1.2-1.3,2.1c-0.3,0.9-0.5,2-0.5,3.4c0,0.8,0.1,1.5,0.3,2.3c0.2,0.8,0.5,1.5,0.9,2.1s0.9,1.1,1.5,1.5
			s1.4,0.6,2.3,0.6c1.2,0,2.2-0.4,3-1.1c0.8-0.7,1.3-1.8,1.5-3.1h4.1c-0.4,2.4-1.3,4.3-2.8,5.6c-1.5,1.3-3.4,1.9-5.8,1.9
			c-1.5,0-2.8-0.2-3.9-0.7c-1.1-0.5-2.1-1.2-2.8-2c-0.8-0.9-1.4-1.9-1.8-3.1c-0.4-1.2-0.6-2.5-0.6-3.8c0-1.4,0.2-2.7,0.6-3.9
			c0.4-1.2,1-2.3,1.7-3.2c0.8-0.9,1.7-1.6,2.9-2.1c1.1-0.5,2.5-0.8,4-0.8c1.1,0,2.1,0.1,3.1,0.4c1,0.3,1.8,0.7,2.6,1.2
			c0.8,0.6,1.4,1.3,1.9,2.1c0.5,0.8,0.8,1.8,0.9,3H150.4z"/>
		<path class="st0" d="M155.4,0.1h4.1v14.7l7.4-7.6h5.1l-7.2,6.9l7.8,11.8h-5l-5.7-9.1l-2.5,2.4v6.7h-4.1V0.1z"/>
	</g>
</g>
<g id="Layer_2">
	<path class="st1" d="M25.8,12.4l0,13.5L0,25.9l0-1.8C0,24.1,15.5,25.2,25.8,12.4z"/>
	<path class="st1" d="M25.8,0L0,0l0,22.7C0,22.7,20.6,22.1,25.8,0z"/>
</g>
</svg>
