<?xml version="1.0" encoding="utf-8"?>
<!-- Generator: Adobe Illustrator 16.0.4, SVG Export Plug-In . SVG Version: 6.00 Build 0)  -->
<!DOCTYPE svg PUBLIC "-//W3C//DTD SVG 1.1//EN" "http://www.w3.org/Graphics/SVG/1.1/DTD/svg11.dtd">
<svg version="1.1" id="PheNode" xmlns="http://www.w3.org/2000/svg" xmlns:xlink="http://www.w3.org/1999/xlink" x="0px" y="0px"
	 width="76.833px" height="39.054px" viewBox="54.83 190.572 76.833 39.054" enable-background="new 54.83 190.572 76.833 39.054"
	 xml:space="preserve">
<g id="Diagnostics">
	<path fill="#48F7F5" d="M82.949,221.278c-0.02,1.055-0.536,2.085-1.479,2.72l-7.572,5.061c-1.533,1.028-3.61,0.619-4.638-0.912
		c-1.029-1.532-0.621-3.608,0.912-4.64l7.572-5.062c0.943-0.633,2.091-0.723,3.075-0.34l2.971-1.995
		c-3.844-7.563-1.52-17.005,5.697-21.851c7.797-5.234,18.399-3.149,23.634,4.648c5.232,7.797,3.148,18.399-4.648,23.635
		c-7.305,4.903-17.072,3.386-22.58-3.24L82.949,221.278z M109.436,201.559c-3.902-5.819-11.787-7.37-17.605-3.463
		c-5.819,3.906-7.37,11.792-3.464,17.609c3.905,5.82,11.791,7.371,17.608,3.464S113.342,207.377,109.436,201.559z"/>
	<g id="Layer_19">
		<polygon fill="#48F7F5" points="98.101,219.542 93.826,206.699 92.882,209.429 88.371,209.429 88.371,207.929 91.814,207.929 
			93.854,202.03 98.069,214.696 102.889,199.551 105.674,207.929 109.371,207.929 109.371,209.429 104.592,209.429 102.92,204.399 
					"/>
		<rect x="118.154" y="208.655" fill="#48F7F5" width="13.509" height="1.5"/>
		<rect x="54.83" y="207.929" fill="#48F7F5" width="24.741" height="1.5"/>
	</g>
</g>
</svg>
