<?xml version="1.0" encoding="utf-8"?>
<!-- Generator: Adobe Illustrator 16.0.4, SVG Export Plug-In . SVG Version: 6.00 Build 0)  -->
<!DOCTYPE svg PUBLIC "-//W3C//DTD SVG 1.1//EN" "http://www.w3.org/Graphics/SVG/1.1/DTD/svg11.dtd">
<svg version="1.1" id="PheNode" xmlns="http://www.w3.org/2000/svg" xmlns:xlink="http://www.w3.org/1999/xlink" x="0px" y="0px"
	 width="76.833px" height="38.252px" viewBox="0 0 76.833 38.252" enable-background="new 0 0 76.833 38.252" xml:space="preserve">
<g id="Diagnostics">
	<path fill="#797979" d="M28.12,29.904c-0.021,1.055-0.537,2.085-1.479,2.72l-7.572,5.062c-1.532,1.027-3.61,0.618-4.638-0.912
		c-1.029-1.532-0.621-3.608,0.912-4.641l7.572-5.062c0.942-0.633,2.09-0.723,3.074-0.34l2.971-1.994
		c-3.844-7.563-1.52-17.006,5.697-21.852c7.797-5.234,18.398-3.148,23.635,4.648c5.231,7.797,3.147,18.398-4.648,23.635
		c-7.305,4.902-17.072,3.386-22.58-3.24L28.12,29.904z M54.606,10.186C50.704,4.366,42.819,2.814,37,6.723
		c-5.818,3.905-7.369,11.791-3.463,17.608c3.904,5.819,11.791,7.371,17.607,3.464C56.961,23.889,58.512,16.003,54.606,10.186z"/>
	<g id="Layer_19">
		<polygon fill="#797979" points="43.271,28.168 38.997,15.325 38.051,18.055 33.542,18.055 33.542,16.555 36.984,16.555 
			39.024,10.656 43.239,23.322 48.059,8.177 50.844,16.555 54.542,16.555 54.542,18.055 49.762,18.055 48.09,13.025 		"/>
		<rect x="63.324" y="17.281" fill="#797979" width="13.509" height="1.5"/>
		<rect x="0" y="16.555" fill="#797979" width="24.74" height="1.5"/>
	</g>
</g>
</svg>
