<?xml version="1.0" encoding="utf-8"?>
<!-- Generator: Adobe Illustrator 16.0.4, SVG Export Plug-In . SVG Version: 6.00 Build 0)  -->
<!DOCTYPE svg PUBLIC "-//W3C//DTD SVG 1.1//EN" "http://www.w3.org/Graphics/SVG/1.1/DTD/svg11.dtd">
<svg version="1.1" id="Layer_6_1_" xmlns="http://www.w3.org/2000/svg" xmlns:xlink="http://www.w3.org/1999/xlink" x="0px" y="0px"
	 width="100.083px" height="40.04px" viewBox="251.247 -59.635 100.083 40.04"
	 enable-background="new 251.247 -59.635 100.083 40.04" xml:space="preserve">
<path fill="#797979" stroke="#797979" stroke-miterlimit="10" d="M301.183-37.942h-1.14v1.398h-2.195c0,0,0.029-1.398,0-1.398
	c-1.53,0-1.113-1.114-1.113-1.114v-1.145l-1.58,1.224l-8.019,15.316c0,0,0.547,2.268,0.534,2.268
	c-1.079-0.514-2.486-0.032-2.926,0.139c-0.646,1.008-1.686,0.965-1.686,0.965s-1.816,0.239-1.816-1.686
	c0.435-1.925,1.816-1.686,1.816-1.686l0.601,0.114l1.562-0.554l0.89-1.283c0,0,6.462-11.955,7.346-13.862
	c0.006-1.731,1.449-2.42,1.449-2.42l0.999-1.271l0.002-1.649c0,0,0,0-0.753-0.281c-1.458,0.116-1.569-0.771-1.569-0.771
	c-2.27-0.22-3.358-0.836-4.183-1.348c-3.061-0.66-3.888-1.592-3.888-1.592l-11.148-3.522l-0.711,0.196l-2.238-0.974
	c0,0-0.291,1.074-1.837,1.074c-1.822,0-2.021-1.383-2.021-1.383l-0.502-0.709v-1.03h0.829v-2.47c0,0-2.884,0-12.9,0
	c7.172-2.021,13.046-0.757,12.955-0.843c1.673-0.888,3.095,0,3.095,0s3.964,0,13.09,0c-7.034,2.194-12.524,0.952-12.524,0.952v2.361
	l2.727,0.855v0.53l11.529,3.578c0,0,2.02-0.105,3.816,0.062c1.002-1.876,4.437-0.725,4.437-0.725
	c1.488-0.863,4.391-1.177,4.391-1.177c0.781-0.736,2.683-0.627,2.683-0.627h0.177c0,0,1.902-0.109,2.684,0.627
	c0,0,2.902,0.314,4.391,1.177c0,0,3.435-1.152,4.437,0.725c1.797-0.167,3.816-0.062,3.816-0.062l11.529-3.578v-0.53l2.727-0.855
	v-2.361c0,0-5.49,1.243-12.524-0.952c9.126,0,13.089,0,13.089,0s1.422-0.888,3.096,0c-0.091,0.085,5.783-1.178,12.955,0.843
	c-10.017,0-12.901,0-12.901,0v2.47h0.83v1.03l-0.502,0.709c0,0-0.199,1.383-2.022,1.383c-1.546,0-1.836-1.074-1.836-1.074
	l-2.238,0.974l-0.711-0.196l-11.148,3.522c0,0-0.827,0.932-3.888,1.592c-0.824,0.512-1.914,1.128-4.183,1.348
	c0,0-0.111,0.888-1.569,0.771c-0.753,0.281-0.753,0.281-0.753,0.281l0.002,1.649l0.998,1.271c0,0,1.444,0.689,1.45,2.42
	c0.884,1.907,7.346,13.862,7.346,13.862l0.89,1.283l1.562,0.554l0.601-0.114c0,0,1.382-0.239,1.816,1.686
	c0,1.925-1.816,1.686-1.816,1.686s-1.039,0.043-1.686-0.965c-0.439-0.171-1.847-0.653-2.926-0.139c-0.013,0,0.534-2.268,0.534-2.268
	l-8.019-15.316l-1.58-1.224v1.145c0,0,0.417,1.114-1.114,1.114c-0.028,0,0,1.398,0,1.398H302.5v-1.398h-1.141H301.183z
	 M301.272-45.124c-1.565,0-2.834,1.269-2.834,2.833s1.269,2.833,2.834,2.833c1.564,0,2.833-1.269,2.833-2.833
	S302.837-45.124,301.272-45.124z"/>
</svg>
