<?xml version="1.0" encoding="utf-8"?>
<!-- Generator: Adobe Illustrator 28.1.0, SVG Export Plug-In . SVG Version: 6.00 Build 0)  -->
<!DOCTYPE svg PUBLIC "-//W3C//DTD SVG 1.1//EN" "http://www.w3.org/Graphics/SVG/1.1/DTD/svg11.dtd" [
	<!ENTITY ns_extend "http://ns.adobe.com/Extensibility/1.0/">
	<!ENTITY ns_ai "http://ns.adobe.com/AdobeIllustrator/10.0/">
	<!ENTITY ns_graphs "http://ns.adobe.com/Graphs/1.0/">
	<!ENTITY ns_vars "http://ns.adobe.com/Variables/1.0/">
	<!ENTITY ns_imrep "http://ns.adobe.com/ImageReplacement/1.0/">
	<!ENTITY ns_sfw "http://ns.adobe.com/SaveForWeb/1.0/">
	<!ENTITY ns_custom "http://ns.adobe.com/GenericCustomNamespace/1.0/">
	<!ENTITY ns_adobe_xpath "http://ns.adobe.com/XPath/1.0/">
]>
<svg version="1.1" id="Layer_6_1_" xmlns:x="&ns_extend;" xmlns:i="&ns_ai;" xmlns:graph="&ns_graphs;"
	 xmlns="http://www.w3.org/2000/svg" xmlns:xlink="http://www.w3.org/1999/xlink" x="0px" y="0px" viewBox="0 0 100.1 40"
	 style="enable-background:new 0 0 100.1 40;" xml:space="preserve">
<style type="text/css">
	.st0{fill:#48F7F5;stroke:#48F7F5;stroke-miterlimit:10;}
</style>
<metadata>
	<sfw  xmlns="&ns_sfw;">
		<slices></slices>
		<sliceSourceBounds  bottomLeftOrigin="true" height="39.4" width="99.8" x="0.1" y="0.2"></sliceSourceBounds>
	</sfw>
</metadata>
<path class="st0" d="M49.9,21.7h-1.1v1.4h-2.2c0,0,0-1.4,0-1.4c-1.5,0-1.1-1.1-1.1-1.1v-1.1l-1.6,1.2l-8,15.3c0,0,0.5,2.3,0.5,2.3
	c-1.1-0.5-2.5,0-2.9,0.1c-0.6,1-1.7,1-1.7,1S30,39.6,30,37.7c0.4-1.9,1.8-1.7,1.8-1.7l0.6,0.1l1.6-0.6l0.9-1.3c0,0,6.5-12,7.3-13.9
	c0-1.7,1.4-2.4,1.4-2.4l1-1.3l0-1.6c0,0,0,0-0.8-0.3c-1.5,0.1-1.6-0.8-1.6-0.8c-2.3-0.2-3.4-0.8-4.2-1.3c-3.1-0.7-3.9-1.6-3.9-1.6
	L23.1,7.5l-0.7,0.2l-2.2-1c0,0-0.3,1.1-1.8,1.1c-1.8,0-2-1.4-2-1.4l-0.5-0.7v-1h0.8V2.2c0,0-2.9,0-12.9,0c7.2-2,13-0.8,13-0.8
	c1.7-0.9,3.1,0,3.1,0s4,0,13.1,0c-7,2.2-12.5,1-12.5,1v2.4l2.7,0.9v0.5l11.5,3.6c0,0,2-0.1,3.8,0.1c1-1.9,4.4-0.7,4.4-0.7
	c1.5-0.9,4.4-1.2,4.4-1.2c0.8-0.7,2.7-0.6,2.7-0.6h0.2c0,0,1.9-0.1,2.7,0.6c0,0,2.9,0.3,4.4,1.2c0,0,3.4-1.2,4.4,0.7
	c1.8-0.2,3.8-0.1,3.8-0.1L77,6.1V5.6l2.7-0.9V2.3c0,0-5.5,1.2-12.5-1c9.1,0,13.1,0,13.1,0s1.4-0.9,3.1,0c-0.1,0.1,5.8-1.2,13,0.8
	c-10,0-12.9,0-12.9,0v2.5h0.8v1l-0.5,0.7c0,0-0.2,1.4-2,1.4c-1.5,0-1.8-1.1-1.8-1.1l-2.2,1l-0.7-0.2l-11.1,3.5c0,0-0.8,0.9-3.9,1.6
	c-0.8,0.5-1.9,1.1-4.2,1.3c0,0-0.1,0.9-1.6,0.8C55.4,15,55.4,15,55.4,15l0,1.6l1,1.3c0,0,1.4,0.7,1.5,2.4c0.9,1.9,7.3,13.9,7.3,13.9
	l0.9,1.3l1.6,0.6l0.6-0.1c0,0,1.4-0.2,1.8,1.7c0,1.9-1.8,1.7-1.8,1.7s-1,0-1.7-1c-0.4-0.2-1.8-0.7-2.9-0.1c0,0,0.5-2.3,0.5-2.3
	l-8-15.3l-1.6-1.2v1.1c0,0,0.4,1.1-1.1,1.1c0,0,0,1.4,0,1.4h-2.2v-1.4h-1.1C50.1,21.7,49.9,21.7,49.9,21.7z M50,14.5
	c-1.6,0-2.8,1.3-2.8,2.8s1.3,2.8,2.8,2.8c1.6,0,2.8-1.3,2.8-2.8S51.6,14.5,50,14.5z"/>
</svg>
