<?xml version="1.0" encoding="utf-8"?>
<!-- Generator: Adobe Illustrator 16.0.4, SVG Export Plug-In . SVG Version: 6.00 Build 0)  -->
<!DOCTYPE svg PUBLIC "-//W3C//DTD SVG 1.1//EN" "http://www.w3.org/Graphics/SVG/1.1/DTD/svg11.dtd">
<svg version="1.1" id="Layer_1" xmlns="http://www.w3.org/2000/svg" xmlns:xlink="http://www.w3.org/1999/xlink" x="0px" y="0px"
	 width="70.631px" height="52.508px" viewBox="0 0 70.631 52.508" enable-background="new 0 0 70.631 52.508" xml:space="preserve">
<g id="PheNode" display="none">
	<g id="PheNode_Outline" display="inline">
		<g>
			<g>
				<rect x="35.218" y="373.092" fill="#48F7F5" width="7.624" height="1"/>
			</g>
		</g>
		<g>
			<g>
				<rect x="35.218" y="369.092" fill="#48F7F5" width="7.624" height="1"/>
			</g>
		</g>
		<g>
			<g>
				<rect x="35.218" y="365.092" fill="#48F7F5" width="7.624" height="1"/>
			</g>
		</g>
		<polyline fill="none" stroke="#1A75E0" stroke-miterlimit="10" points="97.716,412.147 86.655,412.147 86.655,396.229 		"/>
		<line fill="none" stroke="#1A75E0" stroke-miterlimit="10" x1="100.155" y1="396.229" x2="100.155" y2="399.522"/>
		<line fill="none" stroke="#1A75E0" stroke-miterlimit="10" x1="100.155" y1="142.646" x2="100.155" y2="334.646"/>
		<polyline fill="none" stroke="#1A75E0" stroke-miterlimit="10" points="86.655,67.146 86.655,28.146 100.155,28.146 
			100.155,67.146 		"/>
		<line fill="none" stroke="#1A75E0" stroke-miterlimit="10" x1="86.655" y1="334.646" x2="86.655" y2="142.646"/>
		
			<rect x="79.862" y="343.23" fill="none" stroke="#1A75E0" stroke-linejoin="round" stroke-miterlimit="10" width="27.168" height="39.582"/>
		<path fill="none" stroke="#1A75E0" stroke-linejoin="round" stroke-miterlimit="10" d="M106.481,383.312v11.478
			c0,0.795-0.646,1.438-1.438,1.438h-23.3c-0.795,0-1.44-0.645-1.44-1.438v-11.478"/>
		<path fill="none" stroke="#1A75E0" stroke-linejoin="round" stroke-miterlimit="10" d="M106.481,107.438v7.623
			c0,0.795-0.646,1.439-1.438,1.439h-23.3c-0.795,0-1.44-0.645-1.44-1.439v-7.58"/>
		<path fill="none" stroke="#1A75E0" stroke-linejoin="round" stroke-miterlimit="10" d="M80.304,342.688v-5.977
			c0-0.797,0.645-1.439,1.439-1.439h23.299c0.795,0,1.438,0.646,1.438,1.439v5.977"/>
		<path fill="none" stroke="#1A75E0" stroke-miterlimit="10" d="M95.001,386.459c0,0.297-0.16,0.539-0.357,0.539H92.14
			c-0.197,0-0.356-0.242-0.356-0.539v-3.064c0-0.297,0.159-0.539,0.356-0.539h2.504c0.197,0,0.357,0.242,0.357,0.539V386.459z"/>
		<path fill="none" stroke="#1A75E0" stroke-miterlimit="10" d="M90.001,386.459c0,0.297-0.16,0.539-0.357,0.539H87.14
			c-0.197,0-0.356-0.242-0.356-0.539v-3.064c0-0.297,0.159-0.539,0.356-0.539h2.504c0.197,0,0.357,0.242,0.357,0.539V386.459z"/>
		<path fill="none" stroke="#1A75E0" stroke-miterlimit="10" d="M100.001,386.459c0,0.297-0.16,0.539-0.357,0.539H97.14
			c-0.197,0-0.356-0.242-0.356-0.539v-3.064c0-0.297,0.159-0.539,0.356-0.539h2.504c0.197,0,0.357,0.242,0.357,0.539V386.459z"/>
		<path fill="none" stroke="#1A75E0" stroke-miterlimit="10" d="M105.001,386.459c0,0.297-0.16,0.539-0.357,0.539h-2.504
			c-0.197,0-0.356-0.242-0.356-0.539v-3.064c0-0.297,0.159-0.539,0.356-0.539h2.504c0.197,0,0.357,0.242,0.357,0.539V386.459z"/>
		<path fill="none" stroke="#1A75E0" stroke-miterlimit="10" d="M85.001,386.459c0,0.297-0.16,0.539-0.357,0.539H82.14
			c-0.197,0-0.356-0.242-0.356-0.539v-3.064c0-0.297,0.159-0.539,0.356-0.539h2.504c0.197,0,0.357,0.242,0.357,0.539V386.459z"/>
		
			<rect x="79.862" y="67.854" fill="none" stroke="#1A75E0" stroke-linejoin="round" stroke-miterlimit="10" width="27.168" height="39.584"/>
		<path fill="none" stroke="#1A75E0" stroke-miterlimit="10" d="M95.001,111.085c0,0.297-0.16,0.539-0.357,0.539H92.14
			c-0.197,0-0.356-0.242-0.356-0.539v-3.065c0-0.297,0.159-0.539,0.356-0.539h2.504c0.197,0,0.357,0.242,0.357,0.539V111.085z"/>
		<path fill="none" stroke="#1A75E0" stroke-miterlimit="10" d="M90.001,111.085c0,0.297-0.16,0.539-0.357,0.539H87.14
			c-0.197,0-0.356-0.242-0.356-0.539v-3.065c0-0.297,0.159-0.539,0.356-0.539h2.504c0.197,0,0.357,0.242,0.357,0.539V111.085z"/>
		<path fill="none" stroke="#1A75E0" stroke-miterlimit="10" d="M100.001,111.085c0,0.297-0.16,0.539-0.357,0.539H97.14
			c-0.197,0-0.356-0.242-0.356-0.539v-3.065c0-0.297,0.159-0.539,0.356-0.539h2.504c0.197,0,0.357,0.242,0.357,0.539V111.085z"/>
		<path fill="none" stroke="#1A75E0" stroke-miterlimit="10" d="M105.001,111.085c0,0.297-0.16,0.539-0.357,0.539h-2.504
			c-0.197,0-0.356-0.242-0.356-0.539v-3.065c0-0.297,0.159-0.539,0.356-0.539h2.504c0.197,0,0.357,0.242,0.357,0.539V111.085z"/>
		<path fill="none" stroke="#1A75E0" stroke-miterlimit="10" d="M85.001,111.085c0,0.297-0.16,0.539-0.357,0.539H82.14
			c-0.197,0-0.356-0.242-0.356-0.539v-3.065c0-0.297,0.159-0.539,0.356-0.539h2.504c0.197,0,0.357,0.242,0.357,0.539V111.085z"/>
		<path fill="none" stroke="#1A75E0" stroke-miterlimit="10" d="M86.655,398.565l-75.417,29.166c0,0-1.583,0.729-1.583,3.041
			c0,2.311,0,5.125,0,5.125h8.688v-1.812l65.979-21.521v-12C84.321,400.562,84.237,399.481,86.655,398.565z"/>
		<path fill="none" stroke="#1A75E0" stroke-miterlimit="10" d="M84.28,412.7v20.197c0,0-0.375,0-2.497,0s-2.378,2.584-2.378,2.584
			h7.25v-23.043"/>
		<path fill="none" stroke="#1A75E0" stroke-miterlimit="10" d="M98.466,412.438v23.459h6.5c0,0,0.125-2.562-1.438-2.562
			c-1.563,0-3,0-3,0v-20.467"/>
		<path fill="none" stroke="#1A75E0" stroke-miterlimit="10" d="M90.342,400.083v9.439l0.938,0.561l76.207,23.896v1.585h8.834v-4.25
			c0,0,0.666-1.75-3-2.916c-3.665-1.168-76.538-30.168-76.538-30.168S90.342,396.022,90.342,400.083z"/>
		<g>
			<g>
				<path fill="#48F7F5" d="M95.321,314.312v6.252c0,0.3-0.241,0.541-0.538,0.541h-2.88c-0.297,0-0.539-0.241-0.539-0.541v-6.254"/>
				<path fill="none" stroke="#1A75E0" stroke-miterlimit="10" d="M95.321,314.312v6.252c0,0.3-0.241,0.541-0.538,0.541h-2.88
					c-0.297,0-0.539-0.241-0.539-0.541v-6.254"/>
			</g>
		</g>
		<g>
			<g>
				<polyline fill="#48F7F5" points="90.321,15.813 90.321,11.188 96.196,15.813 				"/>
				<polyline fill="none" stroke="#1A75E0" stroke-miterlimit="10" points="90.321,15.813 90.321,11.188 96.196,15.813 				"/>
			</g>
		</g>
		<g>
			<g>
				<path fill="#48F7F5" d="M91.362,308.188v-6.459c0-0.299,0.242-0.541,0.541-0.541h2.878c0.299,0,0.54,0.242,0.54,0.541v6.459"/>
				<path fill="none" stroke="#1A75E0" stroke-miterlimit="10" d="M91.362,308.188v-6.459c0-0.299,0.242-0.541,0.541-0.541h2.878
					c0.299,0,0.54,0.242,0.54,0.541v6.459"/>
			</g>
		</g>
		<g>
			<g>
				<path fill="#48F7F5" d="M95.321,56.188v6.252c0,0.297-0.241,0.539-0.538,0.539h-2.88c-0.297,0-0.539-0.242-0.539-0.539v-6.254"
					/>
				<path fill="none" stroke="#1A75E0" stroke-miterlimit="10" d="M95.321,56.188v6.252c0,0.297-0.241,0.539-0.538,0.539h-2.88
					c-0.297,0-0.539-0.242-0.539-0.539v-6.254"/>
			</g>
		</g>
		<g>
			<g>
				<path fill="#48F7F5" d="M91.362,50.062v-6.459c0-0.299,0.242-0.541,0.541-0.541h2.878c0.299,0,0.54,0.242,0.54,0.541v6.459"/>
				<path fill="none" stroke="#1A75E0" stroke-miterlimit="10" d="M91.362,50.062v-6.459c0-0.299,0.242-0.541,0.541-0.541h2.878
					c0.299,0,0.54,0.242,0.54,0.541v6.459"/>
			</g>
		</g>
		<line fill="none" stroke="#1A75E0" stroke-miterlimit="10" x1="86.655" y1="283.583" x2="100.155" y2="283.583"/>
		<line fill="none" stroke="#1A75E0" stroke-miterlimit="10" x1="86.655" y1="157.646" x2="99.655" y2="157.646"/>
		<path fill="none" stroke="#1A75E0" stroke-miterlimit="10" d="M87.467,118.646H24.445c-0.298,0-0.54-0.242-0.54-0.541v-4.295
			c0-0.297,0.242-0.539,0.54-0.539h55.859"/>
		<path fill="none" stroke="#1A75E0" stroke-miterlimit="10" d="M106.405,113.271h55.96c0.299,0,0.54,0.242,0.54,0.539v4.295
			c0,0.299-0.241,0.541-0.54,0.541H96.783"/>
		<g>
			<g>
				<circle fill="#48F7F5" cx="97.696" cy="77.771" r="4.792"/>
				<circle fill="none" stroke="#1A75E0" stroke-miterlimit="10" cx="97.696" cy="77.771" r="4.792"/>
			</g>
		</g>
		<path fill="none" stroke="#1A75E0" stroke-miterlimit="10" d="M96.783,135.73c0,0.299-0.242,0.541-0.539,0.541h-5.702
			c-0.298,0-0.54-0.242-0.54-0.541v-12.981c0-0.298,0.242-0.54,0.54-0.54h5.702c0.297,0,0.539,0.242,0.539,0.54V135.73z"/>
		<path fill="none" stroke="#1A75E0" stroke-miterlimit="10" d="M90.001,119.186c0-0.297,0.242-0.539,0.54-0.539h5.701
			c0.299,0,0.541,0.242,0.541,0.539v1.607c0,0.298-0.242,0.54-0.541,0.54h-5.701c-0.298,0-0.54-0.242-0.54-0.54V119.186z"/>
		<path fill="none" stroke="#1A75E0" stroke-miterlimit="10" d="M90.001,120.793c0,0.298-0.242,0.54-0.54,0.54h-1.454
			c-0.298,0-0.54-0.242-0.54-0.54v-3.753c0-0.298,0.242-0.54,0.54-0.54h1.454c0.298,0,0.54,0.242,0.54,0.54V120.793z"/>
		<path fill="none" stroke="#1A75E0" stroke-miterlimit="10" d="M32.572,112.105c0,0.299-0.242,0.541-0.54,0.541h-6.253
			c-0.298,0-0.54-0.242-0.54-0.541v-9.752c0-0.299,0.242-0.541,0.54-0.541h6.253c0.298,0,0.54,0.242,0.54,0.541V112.105z"/>
		<g>
			<g>
				<path fill="#48F7F5" d="M25.238,102.146c0-2.025,1.642-3.668,3.667-3.668c2.025,0,3.667,1.643,3.667,3.668H25.238z"/>
				<path fill="none" stroke="#1A75E0" stroke-miterlimit="10" d="M25.238,102.146c0-2.025,1.642-3.668,3.667-3.668
					c2.025,0,3.667,1.643,3.667,3.668H25.238z"/>
			</g>
		</g>
		<path fill="none" stroke="#1A75E0" stroke-miterlimit="10" d="M69.405,108.523c0,0.297-0.242,0.539-0.54,0.539H40.944
			c-0.297,0-0.539-0.242-0.539-0.539V71.02c0-0.297,0.242-0.539,0.539-0.539h27.921c0.298,0,0.54,0.242,0.54,0.539V108.523z"/>
		<path fill="none" stroke="#1A75E0" stroke-miterlimit="10" d="M62.155,112.164c0-0.298-0.242-0.54-0.54-0.54H48.612
			c-0.299,0-0.541,0.242-0.541,0.54v0.566c0,0.299,0.242,0.541,0.541,0.541h13.003c0.298,0,0.54-0.242,0.54-0.541V112.164z"/>
		<line fill="none" stroke="#1A75E0" stroke-miterlimit="10" x1="68.865" y1="109.062" x2="61.615" y2="111.624"/>
		<line fill="none" stroke="#1A75E0" stroke-miterlimit="10" x1="40.944" y1="109.062" x2="48.612" y2="111.624"/>
		<line fill="none" stroke="#1A75E0" stroke-miterlimit="10" x1="54.905" y1="70.479" x2="54.905" y2="109.062"/>
		<line fill="none" stroke="#1A75E0" stroke-miterlimit="10" x1="47.737" y1="70.479" x2="47.737" y2="109.062"/>
		<line fill="none" stroke="#1A75E0" stroke-miterlimit="10" x1="62.155" y1="70.479" x2="62.155" y2="109.062"/>
		<line fill="none" stroke="#1A75E0" stroke-miterlimit="10" x1="40.405" y1="89.771" x2="69.405" y2="89.771"/>
		<line fill="none" stroke="#1A75E0" stroke-miterlimit="10" x1="69.405" y1="79.646" x2="40.405" y2="79.646"/>
		<line fill="none" stroke="#1A75E0" stroke-miterlimit="10" x1="40.405" y1="99.062" x2="69.405" y2="99.062"/>
		<path fill="none" stroke="#1A75E0" stroke-miterlimit="10" d="M78.321,71.355c0,0.299-0.241,0.541-0.539,0.541h-2.254
			c-0.297,0-0.539-0.242-0.539-0.541v-2.961c0-0.297,0.242-0.539,0.539-0.539h2.254c0.298,0,0.539,0.242,0.539,0.539V71.355z"/>
		<path fill="none" stroke="#1A75E0" stroke-miterlimit="10" d="M77.194,40.354c0-0.299-0.241-0.541-0.539-0.541h-0.209
			c-0.297,0-0.539,0.242-0.539,0.541l-0.918,25.336c0,0.297,0.242,0.539,0.539,0.539h2.254c0.298,0,0.539-0.242,0.539-0.539
			L77.194,40.354z"/>
		<line fill="none" stroke="#1A75E0" stroke-miterlimit="10" x1="75.528" y1="66.229" x2="75.528" y2="67.854"/>
		<line fill="none" stroke="#1A75E0" stroke-miterlimit="10" x1="77.782" y1="66.229" x2="77.782" y2="67.604"/>
		<path fill="none" stroke="#1A75E0" stroke-miterlimit="10" d="M95.321,25.043c0,0.298-0.241,0.54-0.538,0.54h-2.88
			c-0.297,0-0.539-0.242-0.539-0.54v-7.17c0-0.298,0.242-0.54,0.539-0.54h2.88c0.297,0,0.538,0.242,0.538,0.54V25.043z"/>
		<path fill="none" stroke="#1A75E0" stroke-miterlimit="10" d="M97.718,72.271c0,0,2.416,0,4.291,0s2,1.5,2,1.5v6.812h2.625v-6.75
			c0,0-0.061-3-2.625-3c-0.438,0-6.291,0-6.291,0h-0.021c0,0-5.854,0-6.291,0c-2.562,0-2.625,3-2.625,3v6.75h2.625v-6.812
			c0,0,0.125-1.5,2-1.5s4.291,0,4.291,0H97.718z"/>
		<path fill="none" stroke="#1A75E0" stroke-miterlimit="10" d="M82.821,118.917v23.188c0,0.299,0.242,0.541,0.541,0.541h20.003
			c0.299,0,0.54-0.242,0.54-0.541v-23.188"/>
		<path fill="none" stroke="#1A75E0" stroke-miterlimit="10" d="M82.821,138.209c-3.619,0-6.563-3.457-6.563-7.705
			s2.945-7.705,6.563-7.705"/>
		<g>
			<g>
				<circle fill="#48F7F5" cx="85.737" cy="16.646" r="4"/>
				<circle fill="none" stroke="#1A75E0" stroke-miterlimit="10" cx="85.737" cy="16.646" r="4"/>
			</g>
		</g>
		<path fill="none" stroke="#1A75E0" stroke-miterlimit="10" d="M100.155,28.146c0,0-0.062-1.688-1.25-1.688
			c-1.188,0-5.438,0-5.438,0h-0.125c0,0-4.25,0-5.438,0c-1.188,0-1.25,1.688-1.25,1.688"/>
		<path fill="none" stroke="#1A75E0" stroke-miterlimit="10" d="M82.821,125.191c-2.496,0-4.526,2.383-4.526,5.312
			s2.031,5.314,4.526,5.314"/>
		<path fill="none" stroke="#1A75E0" stroke-miterlimit="10" d="M103.905,138.209c3.619,0,6.562-3.457,6.562-7.705
			s-2.943-7.705-6.562-7.705"/>
		<g>
			<g>
				<circle fill="#48F7F5" cx="102.321" cy="16.646" r="4"/>
				<circle fill="none" stroke="#1A75E0" stroke-miterlimit="10" cx="102.321" cy="16.646" r="4"/>
			</g>
		</g>
		<path fill="none" stroke="#1A75E0" stroke-miterlimit="10" d="M103.905,125.191c2.496,0,4.527,2.383,4.527,5.312
			s-2.031,5.314-4.527,5.314"/>
		<g>
			<g>
				<path fill="#48F7F5" d="M165.905,81.355c0,0.299-0.241,0.541-0.54,0.541h-36.046c-0.297,0-0.538-0.242-0.538-0.541v-6.67
					c0-0.297,0.241-0.539,0.538-0.539h36.046c0.299,0,0.54,0.242,0.54,0.539V81.355z"/>
				<path fill="none" stroke="#1A75E0" stroke-miterlimit="10" d="M165.905,81.355c0,0.299-0.241,0.541-0.54,0.541h-36.046
					c-0.297,0-0.538-0.242-0.538-0.541v-6.67c0-0.297,0.241-0.539,0.538-0.539h36.046c0.299,0,0.54,0.242,0.54,0.539V81.355z"/>
			</g>
		</g>
		<line fill="none" stroke="#1A75E0" stroke-miterlimit="10" x1="137.371" y1="108.391" x2="137.371" y2="113.271"/>
		<line fill="none" stroke="#1A75E0" stroke-miterlimit="10" x1="139.905" y1="108.583" x2="139.905" y2="113.271"/>
		<path fill="none" stroke="#1A75E0" stroke-miterlimit="10" d="M165.365,81.896l-5.71,4.75v4.125c0,0-0.312,1.688-2.875,1.688
			c-2.563,0-9.438,0-9.438,0s-6.875,0-9.438,0c-2.562,0-2.875-1.688-2.875-1.688v-4.125l-5.709-4.75"/>
		<path fill="none" stroke="#1A75E0" stroke-miterlimit="10" d="M158.31,92.195v15.242c0,0-0.219,1.146-2.219,1.146s-8.75,0-8.75,0
			s-6.75,0-8.75,0s-2.217-1.146-2.217-1.146V92.195"/>
		<line fill="none" stroke="#1A75E0" stroke-miterlimit="10" x1="157.315" y1="108.391" x2="157.315" y2="113.271"/>
		<line fill="none" stroke="#1A75E0" stroke-miterlimit="10" x1="154.78" y1="108.583" x2="154.78" y2="113.271"/>
		<path fill="none" stroke="#1A75E0" stroke-miterlimit="10" d="M86.655,28.146"/>
		<line fill="none" stroke="#1A75E0" stroke-miterlimit="10" x1="89.731" y1="16.815" x2="98.321" y2="16.815"/>
		<line fill="none" stroke="#1A75E0" stroke-miterlimit="10" x1="89.651" y1="15.813" x2="98.321" y2="15.813"/>
		<path fill="none" stroke="#1A75E0" stroke-miterlimit="10" d="M42.841,382.812h7.086c0.299,0,0.54-0.242,0.54-0.539v-19.338
			c0-0.299-0.241-0.539-0.54-0.539h-7.086V382.812z"/>
		<path fill="none" stroke="#1A75E0" stroke-miterlimit="10" d="M46.655,382.812v6.959c0,0-0.084,1.125,1.5,1.125
			c1.582,0,38.628,0,38.628,0s1.608-0.104,1.608-2c0-1.896,0-1.896,0-1.896"/>
		<g>
			<g>
				<path fill="#48F7F5" d="M96.487,313.773c0,0.298-0.241,0.539-0.538,0.539h-5.046c-0.297,0-0.539-0.241-0.539-0.539v-5.045
					c0-0.299,0.242-0.541,0.539-0.541h5.046c0.297,0,0.538,0.242,0.538,0.541V313.773z"/>
				<path fill="none" stroke="#1A75E0" stroke-miterlimit="10" d="M96.487,313.773c0,0.298-0.241,0.539-0.538,0.539h-5.046
					c-0.297,0-0.539-0.241-0.539-0.539v-5.045c0-0.299,0.242-0.541,0.539-0.541h5.046c0.297,0,0.538,0.242,0.538,0.541V313.773z"/>
			</g>
		</g>
		<g>
			<g>
				<path fill="#48F7F5" d="M91.362,185.959v-6.46c0-0.298,0.242-0.54,0.541-0.54h2.878c0.299,0,0.54,0.242,0.54,0.54v6.46"/>
				<path fill="none" stroke="#1A75E0" stroke-miterlimit="10" d="M91.362,185.959v-6.46c0-0.298,0.242-0.54,0.541-0.54h2.878
					c0.299,0,0.54,0.242,0.54,0.54v6.46"/>
			</g>
		</g>
		<g>
			<g>
				<path fill="#48F7F5" d="M95.321,192.083v6.253c0,0.298-0.241,0.54-0.538,0.54h-2.88c-0.297,0-0.539-0.242-0.539-0.54v-6.255"/>
				<path fill="none" stroke="#1A75E0" stroke-miterlimit="10" d="M95.321,192.083v6.253c0,0.298-0.241,0.54-0.538,0.54h-2.88
					c-0.297,0-0.539-0.242-0.539-0.54v-6.255"/>
			</g>
		</g>
		<g>
			<g>
				<path fill="#48F7F5" d="M96.487,191.544c0,0.298-0.241,0.539-0.538,0.539h-5.046c-0.297,0-0.539-0.241-0.539-0.539v-5.045
					c0-0.298,0.242-0.54,0.539-0.54h5.046c0.297,0,0.538,0.242,0.538,0.54V191.544z"/>
				<path fill="none" stroke="#1A75E0" stroke-miterlimit="10" d="M96.487,191.544c0,0.298-0.241,0.539-0.538,0.539h-5.046
					c-0.297,0-0.539-0.241-0.539-0.539v-5.045c0-0.298,0.242-0.54,0.539-0.54h5.046c0.297,0,0.538,0.242,0.538,0.54V191.544z"/>
			</g>
		</g>
		<g>
			<g>
				<path fill="#48F7F5" d="M96.487,55.648c0,0.297-0.241,0.539-0.538,0.539h-5.046c-0.297,0-0.539-0.242-0.539-0.539v-5.045
					c0-0.299,0.242-0.541,0.539-0.541h5.046c0.297,0,0.538,0.242,0.538,0.541V55.648z"/>
				<path fill="none" stroke="#1A75E0" stroke-miterlimit="10" d="M96.487,55.648c0,0.297-0.241,0.539-0.538,0.539h-5.046
					c-0.297,0-0.539-0.242-0.539-0.539v-5.045c0-0.299,0.242-0.541,0.539-0.541h5.046c0.297,0,0.538,0.242,0.538,0.541V55.648z"/>
			</g>
		</g>
	</g>
	<g id="logo" display="inline">
		<g>
			<path fill="#1A75E0" d="M90.87,373.648v-2.594c0-0.514,0.132-0.928,0.396-1.242c0.266-0.313,0.637-0.473,1.117-0.473
				c0.412,0,0.771,0.141,1.077,0.422s0.458,0.711,0.458,1.291v1.812h2.232v0.783H90.87L90.87,373.648z M91.597,370.604
				c-0.074,0.172-0.111,0.41-0.111,0.709v1.554h1.83v-1.554c0-0.35-0.067-0.635-0.205-0.854c-0.135-0.219-0.377-0.328-0.723-0.328
				C91.999,370.131,91.735,370.29,91.597,370.604z"/>
			<path fill="#1A75E0" d="M90.864,369.342v-0.713h1.971c-0.193-0.166-0.331-0.318-0.41-0.453c-0.137-0.229-0.205-0.514-0.205-0.855
				c0-0.61,0.195-1.026,0.586-1.245c0.213-0.119,0.51-0.179,0.889-0.179h2.47v0.729h-2.427c-0.282,0-0.49,0.041-0.622,0.119
				c-0.212,0.129-0.316,0.369-0.316,0.725c0,0.297,0.093,0.562,0.277,0.803c0.184,0.24,0.532,0.357,1.046,0.357h2.041v0.713H90.864z
				"/>
			<path fill="#1A75E0" d="M92.407,363.047c0.128-0.279,0.294-0.494,0.498-0.639c0.193-0.143,0.42-0.238,0.679-0.283
				c0.179-0.043,0.461-0.062,0.851-0.062v3.074c0.393-0.014,0.707-0.113,0.942-0.303c0.235-0.188,0.354-0.479,0.354-0.873
				c0-0.367-0.11-0.662-0.334-0.881c-0.131-0.123-0.28-0.211-0.453-0.262v-0.697c0.144,0.02,0.3,0.08,0.474,0.186
				c0.176,0.104,0.315,0.219,0.429,0.346c0.19,0.216,0.319,0.48,0.387,0.796c0.039,0.172,0.059,0.362,0.059,0.575
				c0,0.523-0.174,0.968-0.521,1.33c-0.349,0.363-0.838,0.545-1.467,0.545c-0.619,0-1.121-0.184-1.507-0.549
				c-0.386-0.367-0.579-0.846-0.579-1.438C92.214,363.618,92.278,363.329,92.407,363.047z M93.917,362.792
				c-0.279,0.028-0.503,0.097-0.67,0.201c-0.312,0.192-0.469,0.516-0.469,0.965c0,0.324,0.107,0.597,0.322,0.815
				c0.215,0.218,0.486,0.334,0.816,0.349V362.792z"/>
			<path fill="#1A75E0" d="M90.882,362.066v-0.926l4.27-2.891h-4.27v-0.75h5.284v0.883l-4.265,2.934h4.265v0.75H90.882
				L90.882,362.066z"/>
			<path fill="#1A75E0" d="M92.685,354.15c0.332-0.373,0.816-0.561,1.459-0.561c0.621,0,1.135,0.164,1.539,0.494
				c0.402,0.33,0.605,0.84,0.605,1.531c0,0.578-0.18,1.035-0.537,1.377c-0.357,0.34-0.84,0.51-1.441,0.51
				c-0.646,0-1.162-0.18-1.545-0.537c-0.384-0.357-0.576-0.838-0.576-1.441C92.188,354.982,92.354,354.523,92.685,354.15z
				 M95.246,354.592c-0.324-0.174-0.687-0.26-1.082-0.26c-0.358,0-0.651,0.062-0.877,0.188c-0.354,0.197-0.531,0.539-0.531,1.021
				c0,0.432,0.151,0.742,0.452,0.938c0.302,0.194,0.666,0.293,1.093,0.293c0.408,0,0.75-0.099,1.023-0.293
				c0.271-0.195,0.407-0.504,0.407-0.931C95.731,355.084,95.569,354.766,95.246,354.592z"/>
			<path fill="#1A75E0" d="M92.419,351c0.073-0.125,0.198-0.268,0.378-0.428h-1.946v-0.684h5.301v0.639h-0.534
				c0.235,0.166,0.407,0.36,0.514,0.588c0.106,0.227,0.158,0.482,0.158,0.773c0,0.469-0.181,0.875-0.541,1.219
				s-0.842,0.516-1.44,0.516c-0.562,0-1.045-0.156-1.457-0.469c-0.412-0.314-0.617-0.762-0.617-1.344
				C92.231,351.491,92.295,351.219,92.419,351z M95.308,352.588c0.275-0.191,0.418-0.498,0.418-0.92
				c0-0.326-0.129-0.596-0.389-0.809c-0.258-0.211-0.627-0.314-1.107-0.314c-0.487,0-0.849,0.107-1.082,0.326
				c-0.233,0.217-0.351,0.484-0.351,0.805c0,0.355,0.125,0.646,0.374,0.865c0.25,0.223,0.616,0.332,1.102,0.332
				C94.685,352.875,95.03,352.78,95.308,352.588z"/>
			<path fill="#1A75E0" d="M92.407,347.04c0.128-0.279,0.294-0.492,0.498-0.64c0.193-0.143,0.42-0.235,0.679-0.282
				c0.179-0.043,0.461-0.062,0.851-0.062v3.073c0.393-0.012,0.707-0.112,0.942-0.301s0.354-0.479,0.354-0.875
				c0-0.367-0.11-0.66-0.334-0.879c-0.131-0.123-0.28-0.211-0.453-0.263v-0.696c0.144,0.018,0.3,0.077,0.474,0.182
				c0.176,0.104,0.315,0.222,0.429,0.349c0.19,0.217,0.319,0.479,0.387,0.795c0.039,0.172,0.059,0.36,0.059,0.576
				c0,0.522-0.174,0.967-0.521,1.33c-0.35,0.362-0.838,0.545-1.467,0.545c-0.619,0-1.121-0.185-1.507-0.55
				c-0.386-0.366-0.579-0.844-0.579-1.436C92.214,347.607,92.278,347.32,92.407,347.04z M93.917,346.786
				c-0.279,0.026-0.503,0.094-0.67,0.198c-0.312,0.193-0.469,0.515-0.469,0.968c0,0.323,0.107,0.596,0.322,0.813
				c0.215,0.219,0.486,0.334,0.816,0.349V346.786z"/>
		</g>
		<g>
			<g>
				<path fill="#48F7F5" d="M94.851,379.652v-2.723c0.373-0.102,0.646-0.438,0.646-0.846c0-0.48-0.394-0.873-0.875-0.873
					s-0.875,0.393-0.875,0.873c0,0.4,0.271,0.74,0.639,0.842l0.003,2.727H90.87v-5.28h5.283v5.28H94.851L94.851,379.652z"/>
			</g>
		</g>
	</g>
	<g id="Layer_4" display="inline">
		<rect width="185.992" height="442.477"/>
	</g>
</g>
<g id="Icons">
	<g id="Data_Preferences" display="none">
		<g id="Buttons" display="inline">
			<path fill="#1A75E0" d="M85.313,27.493v48.502H18.811V27.493H85.313 M87.313,25.493H16.811v52.502h70.502V25.493L87.313,25.493z"
				/>
			<path fill="#1A75E0" d="M55.86,61.6c-3,1.098-6.479,0.711-9.226-1.334c-2.759-2.056-4.125-5.297-3.919-8.498l-5.896-1.377
				c-0.7,5.475,1.492,11.156,6.231,14.688c4.732,3.523,10.79,4.002,15.828,1.777L55.86,61.6z M58.334,44.559
				c2.729,2.033,4.097,5.228,3.925,8.395l5.902,1.385c0.664-5.443-1.531-11.081-6.244-14.591l0,0c-4.725-3.519-10.77-4-15.801-1.788
				l3.019,5.255C52.128,42.126,55.594,42.518,58.334,44.559"/>
		</g>
		<g id="Layer_7" display="inline">
			<polyline fill="#1A75E0" points="38.918,43.438 36.538,46.703 48.903,49.473 48.903,49.473 42.478,38.553 40.097,41.818 			"/>
			<polyline fill="#1A75E0" points="39.31,43.723 27.237,34.924 28.415,33.309 40.487,42.104 			"/>
			<polyline fill="#1A75E0" points="65.172,62.564 62.793,65.832 56.366,54.912 56.366,54.911 68.731,57.682 66.351,60.947 			"/>
			<polyline fill="#1A75E0" points="65.124,62.529 77.196,71.326 78.376,69.708 66.304,60.913 			"/>
		</g>
	</g>
	<g id="Settings" display="none">
		<circle display="inline" fill="#1A75E0" cx="52.031" cy="51.76" r="6.125"/>
		<path display="inline" fill="#1A75E0" d="M52.031,42.135c5.308,0,9.625,4.317,9.625,9.625c0,5.307-4.317,9.625-9.625,9.625
			s-9.625-4.318-9.625-9.625C42.406,46.452,46.724,42.135,52.031,42.135 M52.031,37.135L52.031,37.135 M70.5,55.354v-7.188h-4.289
			c-0.349-1.377-0.892-2.676-1.599-3.865l3.029-3.057l-5.11-5.062l-2.998,3.021c-1.193-0.715-2.497-1.264-3.88-1.615v-4.266h-7.186
			v4.248c-1.391,0.348-2.701,0.895-3.902,1.609l-3.02-3l-5.062,5.096l2.992,2.979c-0.721,1.203-1.271,2.518-1.625,3.912h-4.227
			v7.188l4.227-0.006c0.352,1.396,0.903,2.711,1.625,3.914l-2.992,2.998l5.095,5.078l2.993-2.996
			c1.199,0.713,2.509,1.258,3.896,1.604v4.252l7.188,0.016v-4.281c1.384-0.353,2.688-0.901,3.881-1.617l3.025,3.023l5.078-5.078
			l-3.031-3.035c0.709-1.19,1.254-2.492,1.604-3.871H70.5z"/>
		<path display="inline" fill="#1A75E0" d="M85.321,27.498V76H18.82V27.498H85.321 M87.321,25.498H16.82V78h70.501V25.498
			L87.321,25.498z"/>
	</g>
	<g id="Imaging">
		<circle fill="#48F7F5" cx="35.084" cy="28.537" r="12.093"/>
		<path fill="#48F7F5" d="M35.028,0h9.19l7.492,6.159h3.813V3.218h5.698v2.711c0,0,0.368,0,4.319,0c4.321,0,4.458,3.492,4.458,3.492
			v5.942l-25.686-0.062c-2.601-2.001-5.809-3.184-9.284-3.184h-0.058c-3.475,0-6.686,1.182-9.284,3.184L0.002,15.364V9.421
			c0,0,0.139-3.492,4.458-3.492c3.952,0,4.32,0,4.32,0V3.218h5.698v2.941h3.814L25.782,0h9.19H35.028z"/>
		<path fill="#48F7F5" d="M70.565,17.818c0,0,0,31.491,0,33.023s-2.205,1.532-2.205,1.532s-64.208,0-66.23,0
			C0.108,52.374,0,50.842,0,50.842V17.816h23.15c-2.648,2.866-4.264,6.697-4.264,10.908c0,8.883,7.199,16.083,16.084,16.083
			c8.883,0,16.083-7.198,16.083-16.083c0-4.208-1.614-8.037-4.259-10.904L70.565,17.818z M60.794,21.647
			c-1.195,0-2.16,0.968-2.16,2.161s0.965,2.16,2.16,2.16c1.193,0,2.16-0.966,2.16-2.16S61.987,21.647,60.794,21.647z"/>
	</g>
	<g id="Wireless_Sensors" display="none">
		<g id="RSS" display="inline">
			<g id="Layer_8_1_">
			</g>
			<g id="Layer_7_1_">
				<path fill="#1A75E0" d="M60.835,43.516l-2.37,2.37c-1.721-1.659-3.973-2.571-6.358-2.573c-2.39-0.004-4.638,0.901-6.35,2.552
					l-2.361-2.361C48.235,38.791,55.987,38.797,60.835,43.516L60.835,43.516z"/>
			</g>
			<g id="Layer_6">
				<path fill="#1A75E0" d="M65.446,38.904l-2.364,2.365c-6.091-5.961-15.86-5.973-21.937-0.026l-2.361-2.361
					C46.166,31.631,58.054,31.641,65.446,38.904L65.446,38.904z"/>
			</g>
			<g>
				<path fill="#1A75E0" d="M52.117,71.236c-0.361,0-0.695-0.195-0.872-0.512l-7.944-14.151c-0.174-0.31-0.17-0.688,0.009-0.995
					c0.18-0.307,0.508-0.495,0.863-0.495h15.885c0.354,0,0.684,0.188,0.862,0.495c0.181,0.307,0.183,0.686,0.009,0.995
					l-7.939,14.151C52.812,71.041,52.479,71.236,52.117,71.236z"/>
			</g>
		</g>
		<g id="Layer_11" display="inline">
			<path fill="#1A75E0" d="M56.544,48.389l-4.436,4.479l-4.394-4.457c0,0,1.31-1.963,4.394-1.963
				C55.194,46.448,56.544,48.389,56.544,48.389z"/>
		</g>
		<path display="inline" fill="#1A75E0" d="M85.431,27.495v48.502H18.929V27.495H85.431 M87.431,25.495H16.929v52.502h70.501V25.495
			L87.431,25.495z"/>
	</g>
	<g id="Real_Time_Env" display="none">
		<path display="inline" fill="#1A75E0" d="M55.159,51.708c-0.26,0.035-0.516,0.069-0.771,0.104
			c-0.853,0.117-1.703,0.25-2.544,0.433c-1.144,0.249-2.271,0.595-3.323,1.112c-2.026,0.994-3.791,2.488-4.959,4.433
			c-0.311,0.517-0.576,1.062-0.795,1.623c-0.238,0.612-0.422,1.249-0.535,1.897c-0.023,0.138-0.172,0.612-0.092,0.746
			c-1.113-1.889-1.75-4.091-1.75-6.441c0-7.02,5.688-12.708,12.707-12.708c4.522,0,8.493,2.362,10.746,5.919
			c-0.23,0.257-0.539,0.459-0.826,0.644C60.668,50.977,57.874,51.344,55.159,51.708z"/>
		<path display="inline" opacity="0.5" fill="#1A75E0" enable-background="new    " d="M53.097,68.323"/>
		<polygon display="inline" fill="#1A75E0" points="54.556,40.801 51.681,40.801 53.118,30.551 		"/>
		<polygon display="inline" fill="#1A75E0" points="43.258,44.659 41.226,46.691 34.994,38.427 		"/>
		<polygon display="inline" fill="#1A75E0" points="38.306,54.239 38.306,57.114 28.055,55.676 		"/>
		<g display="inline">
			<path fill="#1A75E0" d="M67.284,33.239c1.861,0,3.375,1.514,3.375,3.375c0,1.86-1.514,3.375-3.375,3.375
				s-3.375-1.515-3.375-3.375C63.909,34.753,65.423,33.239,67.284,33.239 M67.284,31.239c-2.969,0-5.375,2.405-5.375,5.375
				c0,2.969,2.406,5.375,5.375,5.375s5.375-2.406,5.375-5.375C72.659,33.645,70.252,31.239,67.284,31.239L67.284,31.239z"/>
		</g>
		<g id="Layer_13" display="inline">
			<g>
				<path fill="#1A75E0" d="M67.403,69.105c0.188,0.377,0.291,0.804,0.287,1.252c-0.017,1.519-1.26,2.733-2.776,2.718
					c-0.825-0.009-1.563-0.378-2.062-0.96l0,0c-0.51,0.572-1.254,0.927-2.08,0.918c-1.517-0.016-2.733-1.258-2.719-2.773
					c0.006-0.451,0.118-0.875,0.313-1.248l-0.037-0.011c-0.22-0.071-0.424-0.167-0.614-0.286c-0.785-0.49-1.304-1.365-1.293-2.359
					c0.016-1.517,1.26-2.732,2.776-2.717c0.309,0.002,0.604,0.057,0.879,0.152l-0.002-0.023c-0.007-0.088-0.011-0.178-0.009-0.27
					c0.016-1.516,1.258-2.732,2.775-2.717c1.07,0.011,1.991,0.632,2.436,1.529c0.186,0.375,0.289,0.797,0.283,1.244
					c0,0.084-0.006,0.165-0.013,0.246l-0.008,0.059c0.303-0.109,0.63-0.168,0.972-0.166c1.518,0.017,2.733,1.259,2.719,2.774
					c-0.013,1.197-0.789,2.208-1.862,2.573L67.403,69.105z M62.839,65.295c-1.229-0.012-2.232,0.973-2.245,2.199
					c-0.014,1.226,0.972,2.23,2.199,2.244c1.228,0.012,2.231-0.973,2.245-2.198C65.05,66.312,64.067,65.309,62.839,65.295z"/>
			</g>
		</g>
		<path display="inline" fill="#1A75E0" d="M62.581,58.777c0.003,0,0.041,0,0.045,0c1.342,0.014,2.561,0.683,3.291,1.774
			l0.089-0.139c0.586-0.917,1.082-1.947,1.343-3.007c1.439-5.852,0.584-9.708,0.541-9.708c-0.584,1.708-2.451,2.794-2.451,2.794
			c-0.23,0.257-0.539,0.459-0.826,0.644c-2.348,1.509-5.144,1.876-7.857,2.24c-0.259,0.035-0.516,0.069-0.771,0.104
			c-0.853,0.117-1.702,0.25-2.543,0.433c-1.145,0.249-2.271,0.595-3.324,1.112c-2.026,0.994-3.79,2.488-4.958,4.433
			c-0.312,0.517-0.577,1.062-0.796,1.623c-0.237,0.612-0.422,1.249-0.534,1.897c-0.063,0.535-0.103,1.074-0.124,1.612
			c-0.02,0.456-0.025,0.914,0.002,1.37c0.02,0.328,0.197,0.885,0.111,1.191c1.254-4.438,4.996-8.145,9.306-9.623
			c1.29-0.443,2.649-0.741,3.994-0.963c1.428-0.234,2.903-0.461,4.19-1.16c-0.608,0.33-1.162,0.725-1.807,0.999
			c-0.699,0.298-1.43,0.515-2.16,0.716c-1.265,0.35-2.48,0.802-3.637,1.426c-2.118,1.143-3.975,2.714-5.637,4.443
			c-0.655,0.682-1.276,1.396-1.875,2.13c-1.717,2.1-3.193,4.332-4.51,6.702c-0.043,0,1.207,0.75,1.207,0.75l1.614-3.137
			c-0.036,0.096,3.181,0.207,3.334,0.222c2.599,0.229,5.366,0.112,7.873-0.693l0.19-0.062c-0.853-0.764-1.338-1.852-1.325-3.023
			c0.021-2.189,1.821-3.97,4.053-3.97c0.015,0,0.026,0,0.04,0C59.071,60.121,60.679,58.777,62.581,58.777L62.581,58.777z"/>
		<path display="inline" fill="#1A75E0" d="M85.304,27.486v48.503H18.802V27.486H85.304 M87.304,25.487H16.802v52.502h70.502V25.487
			L87.304,25.487z"/>
	</g>
	<g id="Arrows" display="none">
		<g display="inline">
			<path fill="#1A75E0" d="M76.589,365.325L30.36,386.725c-1.011,0.467-2.248,0.459-3.249-0.024c-1-0.483-1.616-1.369-1.616-2.325
				v-42.811c0-0.957,0.615-1.842,1.616-2.324c1.001-0.484,2.238-0.493,3.249-0.025l46.229,21.409
				c1.03,0.479,1.667,1.377,1.667,2.351C78.257,363.95,77.619,364.848,76.589,365.325z"/>
		</g>
	</g>
	<g id="Layer_14" display="none">
		<g display="inline">
			<path fill="#1A75E0" d="M25.496,294.975c0-0.975,0.638-1.873,1.667-2.352l46.229-21.409c1.012-0.468,2.248-0.459,3.25,0.025
				c1,0.483,1.615,1.368,1.615,2.325v42.81c0,0.956-0.615,1.842-1.615,2.325c-1.002,0.484-2.238,0.492-3.25,0.025l-46.229-21.4
				C26.134,296.848,25.496,295.95,25.496,294.975z"/>
		</g>
	</g>
</g>
</svg>
