<?xml version="1.0" encoding="utf-8"?>
<!-- Generator: Adobe Illustrator 16.0.4, SVG Export Plug-In . SVG Version: 6.00 Build 0)  -->
<!DOCTYPE svg PUBLIC "-//W3C//DTD SVG 1.1//EN" "http://www.w3.org/Graphics/SVG/1.1/DTD/svg11.dtd">
<svg version="1.1" id="PheNode" xmlns="http://www.w3.org/2000/svg" xmlns:xlink="http://www.w3.org/1999/xlink" x="0px" y="0px"
	 width="57.072px" height="40.292px" viewBox="49.496 189.334 57.072 40.292" enable-background="new 49.496 189.334 57.072 40.292"
	 xml:space="preserve">
<g id="imaging_Settings">
	<g id="Imaging_1_">
		<path fill="#48F7F5" d="M77.834,189.395h7.071l5.762,4.738h2.936v-2.263h4.382v2.085c0,0,0.283,0,3.327,0
			c3.323,0,3.427,2.687,3.427,2.687v4.573l-19.762-0.048c-2-1.54-4.467-2.45-7.14-2.45h-0.045c-2.674,0-5.143,0.909-7.142,2.45
			l-19.761,0.048v-4.573c0,0,0.108-2.687,3.429-2.687c3.04,0,3.323,0,3.323,0v-2.085h4.383v2.263h2.935l5.762-4.738h7.07H77.834z"/>
		<path fill="#48F7F5" d="M105.176,202.958c0,0,0,24.227,0,25.405c0,1.177-1.697,1.179-1.697,1.179s-49.397,0-50.953,0
			c-1.556,0-1.638-1.179-1.638-1.179v-25.407h17.81c-2.037,2.205-3.28,5.152-3.28,8.391c0,6.834,5.539,12.374,12.374,12.374
			c6.834,0,12.374-5.54,12.374-12.374c0-3.237-1.244-6.184-3.276-8.388L105.176,202.958z M97.656,205.902
			c-0.917,0-1.662,0.745-1.662,1.662c0,0.918,0.742,1.663,1.662,1.663c0.919,0,1.661-0.745,1.661-1.663
			C99.317,206.647,98.575,205.902,97.656,205.902z"/>
	</g>
	<circle fill="#48F7F5" cx="77.8" cy="211.353" r="3.196"/>
	<path fill="#48F7F5" d="M77.8,206.331c2.771-0.001,5.022,2.253,5.022,5.022c0,2.769-2.251,5.023-5.022,5.023
		c-2.77,0-5.024-2.254-5.024-5.023C72.776,208.583,75.03,206.331,77.8,206.331 M77.8,203.721L77.8,203.721 M87.438,213.229v-3.751
		H85.2c-0.182-0.719-0.464-1.396-0.833-2.018l1.582-1.595l-2.669-2.642l-1.564,1.577c-0.621-0.374-1.304-0.66-2.024-0.844v-2.227
		H75.94v2.218c-0.727,0.181-1.41,0.466-2.037,0.84l-1.577-1.565l-2.641,2.658l1.561,1.554c-0.375,0.627-0.663,1.315-0.847,2.042
		h-2.206v3.751l2.206-0.003c0.183,0.728,0.471,1.415,0.847,2.043l-1.561,1.563l2.659,2.651l1.563-1.564
		c0.624,0.372,1.308,0.656,2.033,0.837v2.218l3.751,0.008v-2.234c0.723-0.185,1.403-0.472,2.026-0.845l1.578,1.579l2.651-2.65
		l-1.582-1.584c0.369-0.622,0.654-1.301,0.835-2.021l2.238-0.001V213.229L87.438,213.229z"/>
	<circle fill="#48F7F5" cx="44.964" cy="122.159" r="6.71"/>
	<path fill="#48F7F5" d="M44.933,106.325h5.1l4.156,3.417h2.117v-1.632h3.162v1.504c0,0,0.204,0,2.397,0
		c2.397,0,2.473,1.938,2.473,1.938v3.298l-14.253-0.034c-1.442-1.111-3.222-1.767-5.15-1.767h-0.033
		c-1.928,0-3.709,0.656-5.15,1.767l-14.253,0.034v-3.298c0,0,0.078-1.938,2.474-1.938c2.193,0,2.396,0,2.396,0v-1.504h3.162v1.632
		h2.117l4.156-3.417h5.1H44.933z"/>
	<path fill="#48F7F5" d="M64.652,116.107c0,0,0,17.475,0,18.324c0,0.849-1.224,0.851-1.224,0.851s-35.628,0-36.75,0
		s-1.182-0.851-1.182-0.851v-18.326h12.846c-1.469,1.59-2.367,3.717-2.367,6.052c0,4.929,3.995,8.925,8.925,8.925
		c4.93,0,8.925-3.996,8.925-8.925c0-2.334-0.897-4.46-2.363-6.05L64.652,116.107z M59.23,118.231c-0.662,0-1.199,0.537-1.199,1.199
		c0,0.662,0.536,1.199,1.199,1.199c0.663,0,1.198-0.537,1.198-1.199C60.428,118.769,59.892,118.231,59.23,118.231z"/>
	<circle fill="#48F7F5" cx="74.049" cy="103.497" r="2.825"/>
	<path fill="#48F7F5" d="M74.049,99.058c2.449-0.001,4.439,1.991,4.439,4.439s-1.99,4.44-4.439,4.44s-4.441-1.992-4.441-4.44
		S71.6,99.058,74.049,99.058 M74.049,96.75L74.049,96.75 M82.568,105.155v-3.316H80.59c-0.16-0.635-0.41-1.234-0.736-1.783
		l1.398-1.41l-2.359-2.335l-1.383,1.394c-0.549-0.33-1.152-0.583-1.789-0.746V94.99h-3.316v1.961
		c-0.643,0.16-1.246,0.412-1.801,0.742L69.21,96.31l-2.335,2.35l1.38,1.374c-0.332,0.555-0.586,1.162-0.749,1.805h-1.95v3.316
		l1.95-0.003c0.162,0.644,0.416,1.251,0.749,1.807l-1.38,1.382l2.351,2.344l1.381-1.383c0.553,0.328,1.156,0.579,1.797,0.74v1.961
		l3.316,0.007v-1.975c0.639-0.163,1.24-0.417,1.791-0.747l1.395,1.396l2.344-2.343l-1.398-1.4c0.326-0.55,0.578-1.15,0.738-1.786
		l1.979-0.001V105.155L82.568,105.155z"/>
	<path fill="#1A75E0" d="M120.984,151.314c-0.26,0.035-0.516,0.069-0.771,0.104c-0.852,0.117-1.701,0.25-2.543,0.433
		c-1.145,0.249-2.27,0.595-3.324,1.112c-2.023,0.994-3.789,2.488-4.957,4.433c-0.312,0.517-0.578,1.062-0.795,1.623
		c-0.236,0.612-0.422,1.249-0.535,1.897c-0.023,0.138-0.172,0.612-0.094,0.746c-1.111-1.889-1.75-4.091-1.75-6.441
		c0-7.02,5.689-12.708,12.709-12.708c4.521,0,8.492,2.362,10.746,5.919c-0.229,0.257-0.539,0.459-0.826,0.644
		C126.494,150.583,123.699,150.95,120.984,151.314z"/>
	<path opacity="0.5" fill="#1A75E0" enable-background="new    " d="M118.922,167.93"/>
	<polygon fill="#1A75E0" points="120.381,140.407 117.506,140.407 118.943,130.157 	"/>
	<polygon fill="#1A75E0" points="109.084,144.266 107.051,146.298 100.82,138.033 	"/>
	<polygon fill="#1A75E0" points="104.131,153.846 104.131,156.721 93.881,155.282 	"/>
	<g>
		<path fill="#1A75E0" d="M133.229,168.712c0.188,0.377,0.291,0.804,0.287,1.252c-0.016,1.519-1.26,2.733-2.775,2.718
			c-0.824-0.009-1.562-0.378-2.062-0.96l0,0c-0.508,0.572-1.252,0.927-2.078,0.918c-1.518-0.016-2.732-1.258-2.719-2.773
			c0.004-0.451,0.117-0.875,0.312-1.248l-0.037-0.011c-0.219-0.071-0.424-0.167-0.613-0.286c-0.785-0.49-1.305-1.365-1.293-2.359
			c0.014-1.517,1.258-2.732,2.775-2.717c0.309,0.002,0.604,0.057,0.879,0.152l-0.002-0.023c-0.008-0.088-0.012-0.178-0.01-0.27
			c0.016-1.516,1.258-2.732,2.775-2.717c1.07,0.011,1.992,0.632,2.436,1.529c0.188,0.375,0.289,0.797,0.283,1.244
			c0,0.084-0.006,0.165-0.012,0.246l-0.008,0.059c0.303-0.109,0.629-0.168,0.971-0.166c1.518,0.017,2.734,1.259,2.719,2.774
			c-0.012,1.197-0.789,2.208-1.861,2.573L133.229,168.712z M128.666,164.901c-1.23-0.012-2.234,0.973-2.246,2.199
			c-0.014,1.226,0.971,2.23,2.199,2.244c1.229,0.012,2.23-0.973,2.246-2.198C130.877,165.919,129.893,164.915,128.666,164.901z"/>
	</g>
	<path fill="#1A75E0" d="M128.406,158.384c0.004,0,0.041,0,0.045,0c1.342,0.014,2.561,0.683,3.291,1.774l0.09-0.139
		c0.586-0.917,1.082-1.947,1.342-3.007c1.439-5.854,0.584-9.708,0.541-9.708c-0.584,1.708-2.451,2.794-2.451,2.794
		c-0.23,0.257-0.539,0.459-0.826,0.644c-2.348,1.509-5.143,1.876-7.855,2.24c-0.26,0.035-0.518,0.069-0.773,0.104
		c-0.852,0.117-1.699,0.25-2.543,0.433c-1.145,0.249-2.27,0.595-3.322,1.112c-2.025,0.994-3.789,2.488-4.957,4.433
		c-0.312,0.517-0.578,1.062-0.795,1.623c-0.238,0.612-0.424,1.249-0.535,1.897c-0.064,0.535-0.105,1.074-0.125,1.612
		c-0.02,0.456-0.025,0.914,0.002,1.37c0.02,0.328,0.199,0.885,0.109,1.191c1.256-4.438,4.998-8.145,9.309-9.623
		c1.289-0.443,2.646-0.741,3.994-0.963c1.428-0.234,2.9-0.461,4.189-1.16c-0.607,0.33-1.164,0.725-1.809,0.998
		c-0.697,0.299-1.428,0.516-2.158,0.717c-1.266,0.349-2.48,0.802-3.639,1.426c-2.117,1.143-3.975,2.714-5.637,4.443
		c-0.654,0.682-1.275,1.396-1.875,2.13c-1.717,2.1-3.193,4.332-4.51,6.702c-0.043,0,1.207,0.75,1.207,0.75l1.615-3.137
		c-0.037,0.096,3.18,0.207,3.334,0.222c2.598,0.229,5.365,0.112,7.873-0.693l0.188-0.062c-0.852-0.764-1.338-1.852-1.322-3.023
		c0.02-2.189,1.82-3.97,4.053-3.97c0.014,0,0.023,0,0.039,0C124.898,159.728,126.506,158.384,128.406,158.384L128.406,158.384z"/>
	<circle fill="#1A75E0" cx="141.342" cy="138.662" r="2.825"/>
	<path fill="#1A75E0" d="M141.342,134.222c2.449-0.001,4.439,1.991,4.439,4.439s-1.99,4.44-4.439,4.44s-4.441-1.992-4.441-4.44
		S138.893,134.222,141.342,134.222 M141.342,131.915L141.342,131.915 M149.861,140.32v-3.316h-1.979
		c-0.16-0.635-0.41-1.234-0.736-1.783l1.398-1.41l-2.359-2.335l-1.383,1.394c-0.549-0.33-1.152-0.583-1.789-0.746v-1.968h-3.316
		v1.961c-0.643,0.16-1.247,0.412-1.801,0.742l-1.395-1.384l-2.334,2.35l1.379,1.374c-0.332,0.555-0.586,1.162-0.748,1.805h-1.951
		v3.316l1.951-0.003c0.162,0.644,0.416,1.251,0.748,1.807l-1.379,1.382l2.35,2.344l1.383-1.383c0.552,0.328,1.156,0.579,1.797,0.74
		v1.961l3.316,0.007v-1.975c0.639-0.163,1.24-0.417,1.791-0.747l1.395,1.396l2.344-2.343l-1.398-1.4
		c0.326-0.55,0.578-1.15,0.738-1.786l1.979-0.001V140.32L149.861,140.32z"/>
</g>
</svg>
