<?xml version="1.0" encoding="utf-8"?>
<!-- Generator: Adobe Illustrator 16.0.4, SVG Export Plug-In . SVG Version: 6.00 Build 0)  -->
<!DOCTYPE svg PUBLIC "-//W3C//DTD SVG 1.1//EN" "http://www.w3.org/Graphics/SVG/1.1/DTD/svg11.dtd">
<svg version="1.1" id="PheNode" xmlns="http://www.w3.org/2000/svg" xmlns:xlink="http://www.w3.org/1999/xlink" x="0px" y="0px"
	 width="57.072px" height="40.292px" viewBox="0 0 57.072 40.292" enable-background="new 0 0 57.072 40.292" xml:space="preserve">
<g id="imaging_Settings">
	<g id="Imaging_1_">
		<path fill="#797979" d="M28.408,0.145h7.071l5.762,4.737h2.937V2.621h4.382v2.084c0,0,0.283,0,3.327,0
			c3.322,0,3.427,2.688,3.427,2.688v4.572l-19.762-0.047c-2-1.541-4.468-2.451-7.141-2.451h-0.045c-2.674,0-5.143,0.91-7.142,2.451
			L1.464,11.964V7.392c0,0,0.107-2.688,3.429-2.688c3.04,0,3.323,0,3.323,0V2.621h4.383v2.262h2.935l5.763-4.737h7.069H28.408z"/>
		<path fill="#797979" d="M55.75,13.708c0,0,0,24.227,0,25.404s-1.696,1.18-1.696,1.18s-49.397,0-50.953,0s-1.638-1.18-1.638-1.18
			V13.707h17.81c-2.037,2.205-3.28,5.151-3.28,8.391c0,6.834,5.539,12.374,12.374,12.374c6.834,0,12.374-5.54,12.374-12.374
			c0-3.237-1.244-6.184-3.275-8.389H55.75z M48.23,16.652c-0.917,0-1.662,0.745-1.662,1.662c0,0.918,0.742,1.663,1.662,1.663
			c0.919,0,1.661-0.745,1.661-1.663C49.891,17.397,49.149,16.652,48.23,16.652z"/>
	</g>
	<circle fill="#797979" cx="28.374" cy="22.103" r="3.195"/>
	<path fill="#797979" d="M28.374,17.082c2.771-0.002,5.022,2.252,5.022,5.021s-2.251,5.023-5.022,5.023
		c-2.77,0-5.023-2.254-5.023-5.023S25.604,17.082,28.374,17.082 M28.374,14.471L28.374,14.471 M38.012,23.979v-3.751h-2.238
		c-0.182-0.719-0.464-1.396-0.833-2.018l1.582-1.596l-2.669-2.642L32.29,15.55c-0.62-0.375-1.304-0.66-2.023-0.844v-2.228h-3.752
		v2.218c-0.728,0.182-1.41,0.467-2.037,0.84L22.9,13.972L20.26,16.63l1.561,1.554c-0.375,0.627-0.663,1.315-0.847,2.042h-2.206
		v3.751l2.206-0.003c0.183,0.729,0.471,1.415,0.847,2.043L20.26,27.58l2.658,2.651l1.563-1.563c0.624,0.371,1.308,0.656,2.033,0.836
		v2.219l3.751,0.008v-2.234c0.723-0.185,1.402-0.472,2.025-0.845l1.578,1.579l2.651-2.65l-1.582-1.584
		c0.369-0.621,0.654-1.301,0.835-2.021l2.238-0.001L38.012,23.979L38.012,23.979z"/>
</g>
</svg>
