<?xml version="1.0" encoding="utf-8"?>
<!-- Generator: Adobe Illustrator 16.0.4, SVG Export Plug-In . SVG Version: 6.00 Build 0)  -->
<!DOCTYPE svg PUBLIC "-//W3C//DTD SVG 1.1//EN" "http://www.w3.org/Graphics/SVG/1.1/DTD/svg11.dtd">
<svg version="1.1" id="PheNode" xmlns="http://www.w3.org/2000/svg" xmlns:xlink="http://www.w3.org/1999/xlink" x="0px" y="0px"
	 width="47.988px" height="35.49px" viewBox="0 0 47.988 35.49" enable-background="new 0 0 47.988 35.49" xml:space="preserve">
<g id="Imaging">
	<circle fill="#797979" cx="23.86" cy="19.407" r="8.224"/>
	<path fill="#797979" d="M23.822,0.001h6.25l5.094,4.188h2.594v-2h3.875v1.845c0,0,0.25,0,2.938,0c2.938,0,3.03,2.375,3.03,2.375
		v4.042l-17.468-0.042c-1.768-1.361-3.95-2.166-6.312-2.166h-0.04c-2.363,0-4.546,0.804-6.313,2.166L0.001,10.45V6.408
		c0,0,0.094-2.375,3.031-2.375c2.688,0,2.938,0,2.938,0V2.188h3.875v2h2.594l5.095-4.188h6.25H23.822z"/>
	<path fill="#797979" d="M47.99,11.99c0,0,0,21.417,0,22.458s-1.5,1.042-1.5,1.042s-43.666,0-45.041,0S0,34.448,0,34.448V11.987
		h15.744c-1.801,1.949-2.9,4.556-2.9,7.418c0,6.041,4.896,10.938,10.938,10.938S34.72,25.446,34.72,19.405
		c0-2.86-1.098-5.465-2.896-7.414L47.99,11.99z M41.343,14.594c-0.812,0-1.469,0.658-1.469,1.47c0,0.811,0.657,1.469,1.469,1.469
		c0.812,0,1.469-0.658,1.469-1.469C42.812,15.252,42.156,14.594,41.343,14.594z"/>
</g>
</svg>
