<?xml version="1.0" encoding="utf-8"?>
<!-- Generator: Adobe Illustrator 16.0.4, SVG Export Plug-In . SVG Version: 6.00 Build 0)  -->
<!DOCTYPE svg PUBLIC "-//W3C//DTD SVG 1.1//EN" "http://www.w3.org/Graphics/SVG/1.1/DTD/svg11.dtd">
<svg version="1.1" id="PheNode" xmlns="http://www.w3.org/2000/svg" xmlns:xlink="http://www.w3.org/1999/xlink" x="0px" y="0px"
	 width="44.604px" height="42.523px" viewBox="0 0 44.604 42.523" enable-background="new 0 0 44.604 42.523" xml:space="preserve">
<g id="Real_Time_Env">
	<path fill="#48F7F5" d="M27.103,21.157c-0.258,0.035-0.516,0.068-0.771,0.104c-0.852,0.118-1.701,0.25-2.543,0.434
		c-1.144,0.249-2.271,0.595-3.324,1.111c-2.026,0.994-3.79,2.489-4.958,4.434c-0.312,0.516-0.577,1.062-0.795,1.623
		c-0.238,0.612-0.422,1.249-0.535,1.896c-0.024,0.139-0.172,0.613-0.093,0.747c-1.112-1.889-1.75-4.091-1.75-6.441
		c0-7.02,5.688-12.708,12.708-12.708c4.521,0,8.492,2.361,10.746,5.919c-0.23,0.257-0.539,0.459-0.826,0.644
		C32.613,20.426,29.818,20.793,27.103,21.157z"/>
	<path opacity="0.5" fill="#48F7F5" enable-background="new    " d="M25.042,37.773"/>
	<polygon fill="#48F7F5" points="26.501,10.25 23.626,10.25 25.062,0 	"/>
	<polygon fill="#48F7F5" points="15.204,14.109 13.17,16.141 6.938,7.876 	"/>
	<polygon fill="#48F7F5" points="10.251,23.689 10.251,26.564 0.001,25.125 	"/>
	<g>
		<path fill="#48F7F5" d="M39.228,2.689c1.861,0,3.375,1.514,3.375,3.375c0,1.86-1.514,3.375-3.375,3.375
			c-1.859,0-3.375-1.515-3.375-3.375C35.853,4.202,37.368,2.689,39.228,2.689 M39.228,0.689c-2.969,0-5.375,2.405-5.375,5.375
			c0,2.969,2.406,5.375,5.375,5.375s5.375-2.406,5.375-5.375C44.603,3.094,42.197,0.689,39.228,0.689L39.228,0.689z"/>
	</g>
	<g id="Layer_13">
		<path fill="#1A75E0" stroke="#FFFFFF" stroke-linejoin="round" stroke-miterlimit="10" d="M65.602,217.291"/>
		<g>
			<path fill="#48F7F5" d="M39.347,38.554c0.189,0.377,0.291,0.805,0.287,1.253c-0.016,1.519-1.258,2.733-2.775,2.718
				c-0.824-0.01-1.562-0.378-2.062-0.96l0,0c-0.508,0.571-1.252,0.927-2.078,0.918c-1.518-0.017-2.734-1.258-2.719-2.773
				c0.004-0.451,0.117-0.875,0.312-1.248l-0.037-0.011c-0.219-0.071-0.424-0.167-0.613-0.286c-0.785-0.49-1.305-1.366-1.293-2.359
				c0.014-1.517,1.258-2.732,2.775-2.718c0.309,0.002,0.604,0.057,0.879,0.153l-0.002-0.023c-0.008-0.089-0.01-0.178-0.01-0.27
				c0.016-1.517,1.258-2.733,2.777-2.717c1.068,0.011,1.99,0.632,2.434,1.528c0.188,0.375,0.289,0.798,0.285,1.245
				c-0.002,0.083-0.006,0.165-0.014,0.246l-0.008,0.059c0.303-0.109,0.629-0.169,0.971-0.166c1.518,0.017,2.734,1.259,2.719,2.774
				c-0.012,1.197-0.789,2.208-1.861,2.573L39.347,38.554z M34.784,34.744c-1.229-0.012-2.232,0.972-2.244,2.199
				c-0.016,1.226,0.971,2.23,2.197,2.244c1.229,0.012,2.232-0.973,2.246-2.198C36.995,35.762,36.011,34.757,34.784,34.744z"/>
		</g>
	</g>
	<path fill="#48F7F5" d="M34.525,28.226c0.004,0,0.041,0,0.045,0c1.344,0.015,2.562,0.684,3.291,1.775l0.09-0.139
		c0.586-0.917,1.082-1.947,1.344-3.007c1.438-5.853,0.582-9.708,0.541-9.708c-0.584,1.707-2.453,2.794-2.453,2.794
		c-0.23,0.257-0.539,0.459-0.826,0.644c-2.348,1.508-5.143,1.876-7.855,2.24c-0.26,0.035-0.518,0.068-0.773,0.104
		c-0.852,0.118-1.701,0.25-2.543,0.434c-1.145,0.249-2.271,0.595-3.324,1.111c-2.025,0.994-3.79,2.489-4.958,4.434
		c-0.311,0.516-0.577,1.062-0.795,1.623c-0.238,0.612-0.422,1.249-0.535,1.896c-0.063,0.535-0.103,1.075-0.124,1.613
		c-0.019,0.456-0.024,0.914,0.002,1.37c0.021,0.328,0.198,0.885,0.111,1.191c1.254-4.438,4.997-8.145,9.306-9.624
		c1.289-0.442,2.648-0.74,3.994-0.962c1.428-0.234,2.902-0.461,4.191-1.16c-0.609,0.33-1.164,0.725-1.809,0.998
		c-0.697,0.299-1.428,0.516-2.158,0.717c-1.266,0.349-2.48,0.802-3.639,1.426c-2.117,1.143-3.974,2.714-5.636,4.443
		c-0.655,0.682-1.276,1.396-1.875,2.13c-1.716,2.1-3.193,4.332-4.51,6.701c-0.042,0,1.208,0.75,1.208,0.75l1.613-3.136
		c-0.035,0.096,3.181,0.207,3.334,0.222c2.599,0.229,5.366,0.111,7.874-0.693l0.189-0.062c-0.852-0.763-1.338-1.851-1.324-3.022
		c0.021-2.189,1.822-3.97,4.053-3.97c0.014,0,0.025,0,0.039,0C31.017,29.571,32.624,28.226,34.525,28.226L34.525,28.226z"/>
</g>
</svg>
