<?xml version="1.0" encoding="utf-8"?>
<!-- Generator: Adobe Illustrator 16.0.4, SVG Export Plug-In . SVG Version: 6.00 Build 0)  -->
<!DOCTYPE svg PUBLIC "-//W3C//DTD SVG 1.1//EN" "http://www.w3.org/Graphics/SVG/1.1/DTD/svg11.dtd">
<svg version="1.1" id="PheNode" xmlns="http://www.w3.org/2000/svg" xmlns:xlink="http://www.w3.org/1999/xlink" x="0px" y="0px"
	 width="44.604px" height="42.523px" viewBox="0 0 44.604 42.523" enable-background="new 0 0 44.604 42.523" xml:space="preserve">
<g id="Real_Time_Env">
	<path fill="#797979" d="M27.104,21.157c-0.259,0.035-0.516,0.068-0.771,0.104c-0.853,0.118-1.702,0.25-2.543,0.434
		c-1.145,0.25-2.271,0.595-3.324,1.111c-2.026,0.994-3.79,2.49-4.958,4.434c-0.312,0.516-0.577,1.062-0.795,1.623
		c-0.238,0.613-0.422,1.25-0.535,1.896c-0.024,0.139-0.172,0.613-0.093,0.748c-1.112-1.889-1.75-4.092-1.75-6.441
		c0-7.02,5.688-12.708,12.708-12.708c4.521,0,8.493,2.361,10.746,5.919c-0.23,0.257-0.539,0.459-0.826,0.644
		C32.614,20.426,29.819,20.793,27.104,21.157z"/>
	<path opacity="0.5" fill="#797979" enable-background="new    " d="M25.042,37.772"/>
	<polygon fill="#797979" points="26.501,10.25 23.626,10.25 25.063,0 	"/>
	<polygon fill="#797979" points="15.204,14.108 13.17,16.14 6.939,7.876 	"/>
	<polygon fill="#797979" points="10.251,23.688 10.251,26.563 0.001,25.125 	"/>
	<g>
		<path fill="#797979" d="M39.229,2.688c1.861,0,3.375,1.514,3.375,3.375c0,1.86-1.514,3.375-3.375,3.375
			c-1.86,0-3.375-1.515-3.375-3.375C35.854,4.202,37.368,2.688,39.229,2.688 M39.229,0.688c-2.969,0-5.375,2.405-5.375,5.375
			c0,2.969,2.406,5.375,5.375,5.375s5.375-2.406,5.375-5.375C44.604,3.094,42.198,0.688,39.229,0.688L39.229,0.688z"/>
	</g>
	<g id="Layer_13">
		<path fill="#797979" stroke="#FFFFFF" stroke-linejoin="round" stroke-miterlimit="10" d="M-45.978,37.99"/>
		<g>
			<path fill="#797979" d="M39.348,38.553c0.188,0.377,0.291,0.805,0.287,1.254c-0.016,1.518-1.259,2.732-2.776,2.717
				c-0.824-0.01-1.562-0.377-2.062-0.959l0,0c-0.509,0.57-1.253,0.926-2.079,0.918c-1.517-0.018-2.734-1.258-2.719-2.773
				c0.005-0.451,0.118-0.875,0.312-1.248l-0.037-0.012c-0.219-0.07-0.424-0.166-0.613-0.285c-0.785-0.49-1.305-1.367-1.293-2.359
				c0.015-1.518,1.259-2.732,2.775-2.719c0.31,0.002,0.604,0.057,0.879,0.154l-0.002-0.023c-0.007-0.09-0.01-0.178-0.009-0.27
				c0.016-1.518,1.258-2.734,2.776-2.717c1.069,0.01,1.99,0.631,2.435,1.527c0.187,0.375,0.289,0.799,0.284,1.246
				c-0.001,0.082-0.006,0.164-0.013,0.246l-0.009,0.059c0.304-0.109,0.63-0.17,0.972-0.166c1.518,0.016,2.733,1.258,2.719,2.773
				c-0.012,1.197-0.789,2.209-1.862,2.574L39.348,38.553z M34.785,34.744c-1.229-0.012-2.233,0.971-2.245,2.199
				c-0.015,1.225,0.971,2.23,2.198,2.244c1.229,0.012,2.232-0.973,2.245-2.199S36.012,34.756,34.785,34.744z"/>
		</g>
	</g>
	<path fill="#797979" d="M34.526,28.225c0.003,0,0.041,0,0.045,0c1.343,0.016,2.562,0.684,3.291,1.775l0.09-0.139
		c0.586-0.916,1.081-1.947,1.343-3.006c1.438-5.853,0.583-9.708,0.541-9.708c-0.584,1.707-2.452,2.794-2.452,2.794
		c-0.23,0.257-0.539,0.459-0.826,0.644c-2.348,1.507-5.143,1.876-7.856,2.24c-0.26,0.035-0.517,0.068-0.772,0.104
		c-0.852,0.119-1.702,0.25-2.543,0.434c-1.145,0.25-2.271,0.596-3.324,1.111c-2.025,0.994-3.79,2.49-4.958,4.434
		c-0.311,0.516-0.577,1.062-0.795,1.623c-0.238,0.613-0.422,1.25-0.535,1.896c-0.063,0.535-0.103,1.076-0.124,1.613
		c-0.019,0.457-0.024,0.914,0.002,1.371c0.021,0.328,0.198,0.885,0.111,1.191c1.254-4.438,4.997-8.145,9.306-9.625
		c1.29-0.441,2.649-0.74,3.994-0.961c1.428-0.234,2.903-0.461,4.191-1.16c-0.609,0.33-1.163,0.725-1.808,0.998
		c-0.698,0.299-1.429,0.516-2.159,0.717c-1.266,0.348-2.48,0.801-3.638,1.426c-2.118,1.143-3.975,2.713-5.637,4.443
		c-0.655,0.682-1.276,1.396-1.875,2.129c-1.716,2.1-3.193,4.332-4.51,6.701c-0.042,0,1.208,0.75,1.208,0.75l1.613-3.135
		c-0.035,0.096,3.181,0.207,3.334,0.221c2.599,0.23,5.366,0.111,7.873-0.693l0.19-0.062c-0.852-0.762-1.338-1.85-1.325-3.021
		c0.021-2.189,1.822-3.971,4.053-3.971c0.015,0,0.026,0,0.04,0C31.017,29.571,32.625,28.225,34.526,28.225L34.526,28.225z"/>
</g>
</svg>
