<?xml version="1.0" encoding="utf-8"?>
<!-- Generator: Adobe Illustrator 16.0.4, SVG Export Plug-In . SVG Version: 6.00 Build 0)  -->
<!DOCTYPE svg PUBLIC "-//W3C//DTD SVG 1.1//EN" "http://www.w3.org/Graphics/SVG/1.1/DTD/svg11.dtd">
<svg version="1.1" id="PheNode" xmlns="http://www.w3.org/2000/svg" xmlns:xlink="http://www.w3.org/1999/xlink" x="0px" y="0px"
	 width="44.604px" height="42.523px" viewBox="0 0 44.604 42.523" enable-background="new 0 0 44.604 42.523" xml:space="preserve">
<g id="Real_Time_Env">
	<path fill="#00E1B4" d="M27.104,21.157c-0.259,0.035-0.516,0.068-0.771,0.104c-0.854,0.118-1.702,0.25-2.543,0.435
		c-1.146,0.25-2.271,0.595-3.324,1.111c-2.026,0.993-3.79,2.489-4.958,4.434c-0.312,0.516-0.577,1.062-0.795,1.623
		c-0.238,0.613-0.422,1.25-0.535,1.896c-0.024,0.14-0.172,0.613-0.093,0.748c-1.112-1.889-1.75-4.092-1.75-6.44
		c0-7.021,5.688-12.708,12.708-12.708c4.521,0,8.493,2.36,10.746,5.919c-0.23,0.257-0.539,0.459-0.826,0.644
		C32.614,20.426,29.819,20.793,27.104,21.157z"/>
	<path opacity="0.5" fill="#00E1B4" enable-background="new    " d="M25.042,37.772"/>
	<polygon fill="#00E1B4" points="26.501,10.25 23.626,10.25 25.063,0 	"/>
	<polygon fill="#00E1B4" points="15.204,14.108 13.17,16.14 6.939,7.876 	"/>
	<polygon fill="#00E1B4" points="10.251,23.688 10.251,26.563 0.001,25.125 	"/>
	<g>
		<path fill="#00E1B4" d="M39.229,2.688c1.861,0,3.375,1.514,3.375,3.375c0,1.859-1.514,3.375-3.375,3.375
			c-1.859,0-3.375-1.516-3.375-3.375C35.854,4.202,37.368,2.688,39.229,2.688 M39.229,0.688c-2.969,0-5.375,2.404-5.375,5.375
			c0,2.969,2.406,5.375,5.375,5.375c2.97,0,5.375-2.406,5.375-5.375C44.604,3.094,42.198,0.688,39.229,0.688L39.229,0.688z"/>
	</g>
	<g id="Layer_13">
		<path fill="#00E1B4" stroke="#FFFFFF" stroke-linejoin="round" stroke-miterlimit="10" d="M-45.978,37.99"/>
		<g>
			<path fill="#00E1B4" d="M39.348,38.552c0.188,0.378,0.291,0.806,0.287,1.255c-0.016,1.518-1.259,2.731-2.776,2.717
				c-0.823-0.01-1.562-0.377-2.062-0.959l0,0c-0.509,0.569-1.253,0.926-2.079,0.918c-1.517-0.019-2.734-1.258-2.719-2.773
				c0.005-0.451,0.118-0.875,0.312-1.248l-0.037-0.012c-0.219-0.07-0.424-0.166-0.612-0.285c-0.785-0.49-1.306-1.367-1.293-2.358
				c0.015-1.519,1.259-2.732,2.774-2.72c0.311,0.002,0.604,0.058,0.879,0.154l-0.002-0.023c-0.007-0.09-0.01-0.178-0.009-0.27
				c0.016-1.518,1.258-2.734,2.776-2.717c1.068,0.01,1.989,0.631,2.435,1.526c0.188,0.375,0.289,0.8,0.284,1.246
				c-0.001,0.082-0.006,0.164-0.013,0.246l-0.01,0.06c0.305-0.109,0.631-0.17,0.973-0.166c1.518,0.016,2.732,1.258,2.719,2.772
				c-0.012,1.197-0.789,2.209-1.862,2.574L39.348,38.552z M34.785,34.744c-1.229-0.012-2.233,0.971-2.245,2.199
				c-0.016,1.225,0.971,2.229,2.197,2.244c1.229,0.012,2.232-0.974,2.245-2.199C36.996,35.762,36.012,34.756,34.785,34.744z"/>
		</g>
	</g>
	<path fill="#00E1B4" d="M34.526,28.225c0.003,0,0.041,0,0.045,0c1.344,0.016,2.562,0.684,3.291,1.774l0.091-0.139
		c0.586-0.916,1.081-1.947,1.343-3.006c1.438-5.854,0.583-9.708,0.541-9.708c-0.584,1.707-2.452,2.794-2.452,2.794
		c-0.23,0.257-0.539,0.459-0.826,0.644c-2.348,1.507-5.143,1.876-7.855,2.24c-0.261,0.035-0.518,0.068-0.772,0.104
		c-0.852,0.118-1.702,0.25-2.543,0.434c-1.145,0.25-2.271,0.596-3.324,1.111c-2.024,0.993-3.79,2.489-4.958,4.434
		c-0.311,0.516-0.577,1.062-0.795,1.623c-0.238,0.613-0.422,1.25-0.535,1.896c-0.062,0.535-0.103,1.076-0.124,1.613
		c-0.019,0.457-0.023,0.914,0.002,1.371c0.021,0.328,0.198,0.885,0.111,1.191c1.254-4.438,4.997-8.146,9.306-9.625
		c1.29-0.441,2.649-0.74,3.994-0.961c1.429-0.234,2.903-0.461,4.191-1.16c-0.609,0.33-1.163,0.725-1.809,0.998
		c-0.697,0.299-1.429,0.516-2.158,0.717c-1.267,0.348-2.48,0.801-3.639,1.426c-2.117,1.144-3.975,2.713-5.637,4.443
		c-0.655,0.682-1.276,1.396-1.875,2.129c-1.716,2.1-3.193,4.332-4.51,6.701c-0.042,0,1.208,0.75,1.208,0.75l1.613-3.136
		c-0.035,0.097,3.181,0.207,3.334,0.222c2.599,0.229,5.365,0.11,7.873-0.693l0.189-0.062c-0.852-0.763-1.338-1.851-1.325-3.021
		c0.021-2.188,1.822-3.971,4.054-3.971c0.015,0,0.025,0,0.039,0C31.017,29.571,32.625,28.225,34.526,28.225L34.526,28.225z"/>
</g>
</svg>
