<?xml version="1.0" encoding="utf-8"?>
<!-- Generator: Adobe Illustrator 16.0.4, SVG Export Plug-In . SVG Version: 6.00 Build 0)  -->
<!DOCTYPE svg PUBLIC "-//W3C//DTD SVG 1.1//EN" "http://www.w3.org/Graphics/SVG/1.1/DTD/svg11.dtd">
<svg version="1.1" id="PheNode" xmlns="http://www.w3.org/2000/svg" xmlns:xlink="http://www.w3.org/1999/xlink" x="0px" y="0px"
	 width="55.73px" height="42.527px" viewBox="49.496 180.405 55.73 42.527" enable-background="new 49.496 180.405 55.73 42.527"
	 xml:space="preserve">
<g id="imaging_Settings">
	<g id="Imaging_1_">
		<path fill="#1A75E0" d="M98.567,338.083h6.25l5.094,4.188h2.595v-2h3.875v1.844c0,0,0.25,0,2.938,0c2.938,0,3.03,2.375,3.03,2.375
			v4.042l-17.469-0.042c-1.768-1.361-3.949-2.166-6.312-2.166h-0.04c-2.363,0-4.546,0.804-6.312,2.166l-17.469,0.042v-4.042
			c0,0,0.096-2.375,3.031-2.375c2.688,0,2.938,0,2.938,0v-1.844h3.875v2h2.595l5.094-4.188h6.25H98.567z"/>
		<path fill="#1A75E0" d="M122.735,350.072c0,0,0,21.417,0,22.458c0,1.04-1.5,1.042-1.5,1.042s-43.666,0-45.041,0
			s-1.448-1.042-1.448-1.042v-22.46H90.49c-1.801,1.949-2.9,4.555-2.9,7.418c0,6.041,4.896,10.938,10.938,10.938
			s10.938-4.896,10.938-10.938c0-2.861-1.1-5.467-2.896-7.415L122.735,350.072z M116.09,352.676c-0.812,0-1.47,0.658-1.47,1.469
			c0,0.812,0.657,1.47,1.47,1.47s1.469-0.658,1.469-1.47C117.559,353.334,116.901,352.676,116.09,352.676z"/>
	</g>
	<circle fill="#1A75E0" cx="98.537" cy="357.494" r="2.825"/>
	<path fill="#1A75E0" d="M98.537,353.055c2.449-0.001,4.439,1.991,4.439,4.439s-1.99,4.44-4.439,4.44s-4.441-1.992-4.441-4.44
		S96.088,353.055,98.537,353.055 M98.537,350.747L98.537,350.747 M107.057,359.152v-3.316h-1.979
		c-0.16-0.635-0.41-1.234-0.736-1.783l1.398-1.41l-2.359-2.335l-1.383,1.394c-0.549-0.33-1.152-0.583-1.789-0.746v-1.968h-3.316
		v1.961c-0.643,0.16-1.246,0.412-1.801,0.742l-1.394-1.384l-2.335,2.35l1.38,1.374c-0.332,0.555-0.586,1.162-0.749,1.805h-1.95
		v3.316l1.95-0.003c0.162,0.644,0.416,1.251,0.749,1.807l-1.38,1.382l2.351,2.344l1.382-1.383c0.552,0.328,1.156,0.579,1.797,0.74
		v1.961l3.316,0.007v-1.975c0.639-0.163,1.24-0.417,1.791-0.747l1.395,1.396l2.344-2.343l-1.398-1.4
		c0.326-0.55,0.578-1.15,0.738-1.786l1.979-0.001V359.152L107.057,359.152z"/>
	<circle fill="#1A75E0" cx="66.829" cy="121.335" r="6.71"/>
	<path fill="#1A75E0" d="M66.797,105.5h5.1l4.156,3.417h2.117v-1.632h3.162v1.504c0,0,0.204,0,2.397,0
		c2.397,0,2.473,1.938,2.473,1.938v3.298l-14.253-0.034c-1.442-1.111-3.222-1.767-5.15-1.767h-0.033
		c-1.928,0-3.709,0.656-5.15,1.767l-14.253,0.034v-3.298c0,0,0.078-1.938,2.474-1.938c2.193,0,2.396,0,2.396,0v-1.504h3.162v1.632
		h2.117l4.156-3.417h5.1H66.797z"/>
	<path fill="#1A75E0" d="M86.517,115.283c0,0,0,17.475,0,18.324c0,0.849-1.224,0.85-1.224,0.85s-35.628,0-36.75,0
		s-1.182-0.85-1.182-0.85v-18.326h12.846c-1.469,1.59-2.367,3.717-2.367,6.052c0,4.929,3.995,8.925,8.925,8.925
		c4.93,0,8.925-3.996,8.925-8.924c0-2.334-0.897-4.46-2.363-6.05L86.517,115.283z M81.095,117.407c-0.662,0-1.199,0.537-1.199,1.199
		c0,0.662,0.536,1.199,1.199,1.199c0.663,0,1.198-0.537,1.198-1.199C82.293,117.944,81.757,117.407,81.095,117.407z"/>
	<circle fill="#1A75E0" cx="95.914" cy="102.673" r="2.825"/>
	<path fill="#1A75E0" d="M95.914,98.233c2.449-0.001,4.439,1.991,4.439,4.439s-1.99,4.44-4.439,4.44s-4.441-1.992-4.441-4.44
		S93.465,98.233,95.914,98.233 M95.914,95.926L95.914,95.926 M104.434,104.331v-3.316h-1.979c-0.16-0.635-0.41-1.234-0.736-1.783
		l1.398-1.41l-2.359-2.335l-1.383,1.394c-0.549-0.33-1.152-0.583-1.789-0.746v-1.968H94.27v1.961
		c-0.643,0.16-1.246,0.412-1.801,0.742l-1.394-1.384l-2.335,2.35l1.38,1.374c-0.332,0.555-0.586,1.162-0.749,1.805h-1.95v3.316
		l1.95-0.003c0.162,0.644,0.416,1.251,0.749,1.807l-1.38,1.382l2.351,2.344l1.382-1.383c0.552,0.328,1.156,0.579,1.797,0.74v1.961
		l3.316,0.007v-1.975c0.639-0.163,1.24-0.417,1.791-0.747l1.395,1.396l2.344-2.343l-1.398-1.4c0.326-0.55,0.578-1.15,0.738-1.786
		l1.979-0.001V104.331L104.434,104.331z"/>
	<path fill="#48F7F5" d="M76.351,201.564c-0.26,0.035-0.516,0.069-0.771,0.104c-0.852,0.117-1.702,0.25-2.542,0.433
		c-1.146,0.249-2.271,0.595-3.324,1.112c-2.024,0.994-3.79,2.488-4.958,4.433c-0.312,0.517-0.577,1.062-0.795,1.623
		c-0.236,0.612-0.422,1.249-0.535,1.897c-0.023,0.138-0.172,0.612-0.093,0.746c-1.112-1.889-1.75-4.091-1.75-6.441
		c0-7.02,5.688-12.708,12.708-12.708c4.522,0,8.493,2.362,10.747,5.919c-0.229,0.257-0.539,0.459-0.826,0.644
		C81.86,200.833,79.065,201.2,76.351,201.564z"/>
	<path opacity="0.5" fill="#48F7F5" enable-background="new    " d="M74.289,218.18"/>
	<polygon fill="#48F7F5" points="75.747,190.657 72.873,190.657 74.309,180.407 	"/>
	<polygon fill="#48F7F5" points="64.451,194.516 62.417,196.548 56.186,188.283 	"/>
	<polygon fill="#48F7F5" points="59.498,204.096 59.498,206.971 49.248,205.532 	"/>
	<g>
		<path fill="#48F7F5" d="M88.595,218.962c0.188,0.377,0.291,0.804,0.287,1.252c-0.016,1.519-1.26,2.733-2.775,2.718
			c-0.824-0.009-1.562-0.378-2.062-0.96l0,0c-0.508,0.572-1.252,0.927-2.078,0.918c-1.518-0.016-2.732-1.258-2.719-2.773
			c0.004-0.451,0.117-0.875,0.312-1.248l-0.037-0.011c-0.219-0.071-0.424-0.167-0.613-0.286c-0.785-0.49-1.305-1.365-1.293-2.359
			c0.014-1.517,1.258-2.732,2.775-2.717c0.309,0.002,0.604,0.057,0.879,0.152l-0.002-0.023c-0.008-0.088-0.012-0.178-0.01-0.27
			c0.016-1.516,1.258-2.732,2.775-2.717c1.07,0.011,1.992,0.632,2.436,1.529c0.188,0.375,0.289,0.797,0.283,1.244
			c0,0.084-0.006,0.165-0.012,0.246l-0.008,0.059c0.303-0.109,0.629-0.168,0.971-0.166c1.518,0.017,2.734,1.259,2.719,2.774
			c-0.012,1.197-0.789,2.208-1.861,2.573L88.595,218.962z M84.032,215.151c-1.23-0.012-2.234,0.973-2.246,2.199
			c-0.014,1.226,0.971,2.23,2.199,2.244c1.229,0.012,2.23-0.973,2.246-2.198C86.243,216.169,85.259,215.165,84.032,215.151z"/>
	</g>
	<path fill="#48F7F5" d="M83.772,208.634c0.004,0,0.041,0,0.045,0c1.342,0.014,2.561,0.683,3.291,1.774l0.09-0.139
		c0.586-0.917,1.082-1.947,1.342-3.007c1.439-5.854,0.584-9.708,0.541-9.708c-0.584,1.708-2.451,2.794-2.451,2.794
		c-0.23,0.257-0.539,0.459-0.826,0.644c-2.348,1.509-5.143,1.876-7.855,2.24c-0.26,0.035-0.518,0.069-0.773,0.104
		c-0.852,0.117-1.699,0.25-2.543,0.433c-1.145,0.249-2.27,0.595-3.323,1.112c-2.025,0.994-3.789,2.488-4.957,4.433
		c-0.312,0.517-0.578,1.062-0.795,1.623c-0.238,0.612-0.424,1.249-0.535,1.897c-0.064,0.535-0.104,1.074-0.125,1.612
		c-0.02,0.456-0.024,0.914,0.002,1.37c0.021,0.328,0.199,0.885,0.11,1.191c1.255-4.438,4.997-8.145,9.308-9.623
		c1.29-0.443,2.647-0.741,3.995-0.963c1.428-0.234,2.9-0.461,4.189-1.16c-0.607,0.33-1.164,0.725-1.809,0.998
		c-0.697,0.299-1.428,0.516-2.158,0.717c-1.266,0.349-2.48,0.802-3.639,1.426c-2.118,1.143-3.975,2.714-5.637,4.443
		c-0.654,0.682-1.275,1.396-1.875,2.13c-1.716,2.1-3.193,4.332-4.51,6.702c-0.042,0,1.208,0.75,1.208,0.75l1.614-3.137
		c-0.036,0.096,3.18,0.207,3.334,0.222c2.598,0.229,5.366,0.112,7.874-0.693l0.188-0.062c-0.852-0.764-1.338-1.852-1.322-3.023
		c0.02-2.189,1.82-3.97,4.053-3.97c0.014,0,0.023,0,0.039,0C80.265,209.978,81.872,208.634,83.772,208.634L83.772,208.634z"/>
	<circle fill="#48F7F5" cx="96.708" cy="188.912" r="2.825"/>
	<path fill="#48F7F5" d="M96.708,184.472c2.449-0.001,4.439,1.991,4.439,4.439s-1.99,4.44-4.439,4.44s-4.442-1.992-4.442-4.44
		S94.259,184.472,96.708,184.472 M96.708,182.165L96.708,182.165 M105.228,190.57v-3.316h-1.979c-0.16-0.635-0.41-1.234-0.736-1.783
		l1.398-1.41l-2.359-2.335l-1.383,1.394c-0.549-0.33-1.152-0.583-1.789-0.746v-1.968h-3.316v1.961
		c-0.643,0.16-1.247,0.412-1.801,0.742l-1.394-1.384l-2.335,2.35l1.38,1.374c-0.332,0.555-0.586,1.162-0.749,1.805h-1.95v3.316
		l1.95-0.003c0.162,0.644,0.416,1.251,0.749,1.807l-1.38,1.382l2.351,2.344l1.382-1.383c0.552,0.328,1.157,0.579,1.797,0.74v1.961
		l3.316,0.007v-1.975c0.639-0.163,1.24-0.417,1.791-0.747l1.395,1.396l2.344-2.343l-1.398-1.4c0.326-0.55,0.578-1.15,0.738-1.786
		l1.979-0.001V190.57L105.228,190.57z"/>
</g>
</svg>
