<?xml version="1.0" encoding="utf-8"?>
<!-- Generator: Adobe Illustrator 16.0.4, SVG Export Plug-In . SVG Version: 6.00 Build 0)  -->
<!DOCTYPE svg PUBLIC "-//W3C//DTD SVG 1.1//EN" "http://www.w3.org/Graphics/SVG/1.1/DTD/svg11.dtd">
<svg version="1.1" id="PheNode" xmlns="http://www.w3.org/2000/svg" xmlns:xlink="http://www.w3.org/1999/xlink" x="0px" y="0px"
	 width="55.73px" height="42.527px" viewBox="0 0 55.73 42.527" enable-background="new 0 0 55.73 42.527" xml:space="preserve">
<g id="imaging_Settings">
	<path fill="#00E1B4" d="M26.978,21.159c-0.262,0.035-0.518,0.068-0.771,0.104c-0.852,0.116-1.702,0.25-2.542,0.434
		c-1.146,0.249-2.271,0.595-3.324,1.111c-2.022,0.993-3.79,2.487-4.958,4.434c-0.312,0.517-0.575,1.062-0.795,1.623
		c-0.234,0.611-0.422,1.249-0.534,1.896c-0.022,0.14-0.173,0.612-0.094,0.746c-1.11-1.889-1.75-4.091-1.75-6.439
		c0-7.021,5.688-12.708,12.708-12.708c4.522,0,8.493,2.36,10.747,5.919c-0.229,0.257-0.539,0.459-0.826,0.644
		C32.487,20.427,29.692,20.795,26.978,21.159z"/>
	<path opacity="0.5" fill="#00E1B4" enable-background="new    " d="M24.916,37.775"/>
	<polygon fill="#00E1B4" points="26.374,10.252 23.5,10.252 24.936,0.002 	"/>
	<polygon fill="#00E1B4" points="15.078,14.111 13.044,16.142 6.813,7.878 	"/>
	<polygon fill="#00E1B4" points="10.125,23.691 10.125,26.566 -0.125,25.127 	"/>
	<g>
		<path fill="#00E1B4" d="M39.222,38.556c0.188,0.377,0.29,0.805,0.285,1.252c-0.016,1.52-1.26,2.732-2.773,2.719
			c-0.824-0.01-1.562-0.378-2.062-0.96l0,0c-0.508,0.571-1.252,0.927-2.078,0.918c-1.518-0.018-2.73-1.259-2.719-2.773
			c0.004-0.451,0.117-0.875,0.312-1.248l-0.037-0.011c-0.219-0.071-0.424-0.167-0.613-0.286c-0.785-0.49-1.305-1.365-1.293-2.358
			c0.014-1.518,1.258-2.731,2.775-2.718c0.309,0.002,0.604,0.059,0.879,0.152l-0.002-0.023c-0.009-0.088-0.014-0.178-0.012-0.27
			c0.018-1.517,1.26-2.732,2.775-2.717c1.07,0.011,1.992,0.632,2.438,1.527c0.188,0.375,0.287,0.798,0.281,1.244
			c0,0.084-0.006,0.165-0.012,0.246l-0.007,0.06c0.303-0.108,0.629-0.168,0.971-0.166c1.52,0.018,2.734,1.26,2.719,2.773
			c-0.012,1.197-0.788,2.208-1.859,2.573L39.222,38.556z M34.659,34.746c-1.229-0.012-2.234,0.973-2.246,2.199
			c-0.014,1.226,0.971,2.229,2.199,2.243c1.229,0.013,2.229-0.974,2.246-2.197C36.87,35.763,35.885,34.76,34.659,34.746z"/>
	</g>
	<path fill="#00E1B4" d="M34.399,28.228c0.004,0,0.041,0,0.045,0c1.342,0.015,2.561,0.684,3.291,1.773l0.09-0.139
		c0.586-0.917,1.082-1.947,1.342-3.008c1.439-5.854,0.584-9.708,0.541-9.708c-0.584,1.708-2.451,2.795-2.451,2.795
		c-0.229,0.257-0.539,0.459-0.824,0.644c-2.35,1.509-5.145,1.876-7.855,2.24c-0.26,0.035-0.518,0.068-0.772,0.104
		c-0.853,0.116-1.698,0.25-2.543,0.434c-1.146,0.249-2.271,0.595-3.322,1.111c-2.025,0.993-3.789,2.487-4.957,4.434
		c-0.312,0.517-0.578,1.062-0.795,1.623c-0.238,0.611-0.425,1.249-0.535,1.896c-0.064,0.535-0.104,1.074-0.125,1.612
		c-0.021,0.456-0.024,0.914,0.002,1.37c0.021,0.328,0.199,0.885,0.109,1.19c1.256-4.438,4.996-8.146,9.309-9.623
		c1.29-0.442,2.646-0.74,3.995-0.963c1.428-0.233,2.898-0.462,4.188-1.16c-0.605,0.33-1.164,0.726-1.809,0.998
		c-0.697,0.3-1.428,0.517-2.158,0.718c-1.266,0.349-2.479,0.802-3.639,1.426c-2.118,1.144-3.977,2.714-5.639,4.442
		c-0.652,0.683-1.273,1.396-1.875,2.131c-1.716,2.1-3.191,4.332-4.51,6.701c-0.042,0,1.208,0.75,1.208,0.75l1.614-3.138
		c-0.036,0.097,3.18,0.207,3.334,0.223c2.598,0.229,5.366,0.111,7.874-0.692l0.188-0.062c-0.852-0.765-1.338-1.853-1.32-3.022
		c0.02-2.188,1.818-3.97,4.053-3.97c0.014,0,0.023,0,0.039,0C30.892,29.573,32.499,28.228,34.399,28.228L34.399,28.228z"/>
	<circle fill="#00E1B4" cx="47.335" cy="8.507" r="2.825"/>
	<path fill="#00E1B4" d="M47.335,4.067c2.449-0.001,4.439,1.99,4.439,4.438c0,2.448-1.99,4.44-4.439,4.44
		c-2.448,0-4.44-1.992-4.44-4.44C42.894,6.057,44.885,4.067,47.335,4.067 M47.335,1.76L47.335,1.76 M55.855,10.165V6.848h-1.979
		c-0.16-0.636-0.41-1.233-0.734-1.782l1.396-1.41l-2.358-2.335l-1.384,1.394c-0.549-0.33-1.15-0.583-1.789-0.746V0.001h-3.314v1.961
		c-0.645,0.16-1.247,0.412-1.801,0.742L42.496,1.32l-2.335,2.35l1.38,1.374c-0.332,0.556-0.586,1.162-0.749,1.806h-1.95v3.315
		l1.95-0.003c0.162,0.645,0.416,1.251,0.749,1.807l-1.38,1.383l2.352,2.345l1.383-1.384c0.552,0.328,1.155,0.579,1.797,0.739v1.962
		l3.314,0.007v-1.976c0.641-0.163,1.24-0.417,1.791-0.747l1.396,1.396l2.344-2.344l-1.396-1.399c0.324-0.55,0.576-1.15,0.736-1.786
		H55.855L55.855,10.165L55.855,10.165z"/>
</g>
</svg>
