<?xml version="1.0" encoding="utf-8"?>
<!-- Generator: Adobe Illustrator 16.0.4, SVG Export Plug-In . SVG Version: 6.00 Build 0)  -->
<!DOCTYPE svg PUBLIC "-//W3C//DTD SVG 1.1//EN" "http://www.w3.org/Graphics/SVG/1.1/DTD/svg11.dtd">
<svg version="1.1" id="PheNode" xmlns="http://www.w3.org/2000/svg" xmlns:xlink="http://www.w3.org/1999/xlink" x="0px" y="0px"
	 width="36.875px" height="36.891px" viewBox="0 0 36.875 36.891" enable-background="new 0 0 36.875 36.891" xml:space="preserve">
<g id="Settings">
	<circle fill="#00E1B4" cx="18.408" cy="18.441" r="6.125"/>
	<path fill="#00E1B4" d="M18.408,8.816c5.309,0,9.625,4.317,9.625,9.625s-4.316,9.625-9.625,9.625c-5.309,0-9.625-4.317-9.625-9.625
		S13.1,8.816,18.408,8.816 M18.408,3.816L18.408,3.816 M36.876,22.034v-7.188h-4.289c-0.349-1.376-0.892-2.676-1.599-3.866
		l3.029-3.057l-5.11-5.062l-2.998,3.021c-1.192-0.714-2.497-1.263-3.88-1.615V0.001h-7.187V4.25
		c-1.391,0.348-2.701,0.895-3.902,1.607L7.922,2.86L2.86,7.953l2.991,2.979C5.13,12.135,4.58,13.45,4.226,14.843H0v7.188
		l4.227-0.006c0.352,1.396,0.903,2.711,1.625,3.914L2.86,28.937l5.094,5.079l2.994-2.997c1.198,0.713,2.508,1.259,3.896,1.605v4.25
		l7.188,0.016v-4.28c1.383-0.354,2.687-0.901,3.88-1.616l3.025,3.021l5.078-5.078l-3.031-3.034c0.709-1.19,1.254-2.492,1.604-3.87
		h4.288V22.034z"/>
</g>
</svg>
