<?xml version="1.0" encoding="utf-8"?>
<!-- Generator: Adobe Illustrator 16.0.4, SVG Export Plug-In . SVG Version: 6.00 Build 0)  -->
<!DOCTYPE svg PUBLIC "-//W3C//DTD SVG 1.1//EN" "http://www.w3.org/Graphics/SVG/1.1/DTD/svg11.dtd">
<svg version="1.1" id="PheNode" xmlns="http://www.w3.org/2000/svg" xmlns:xlink="http://www.w3.org/1999/xlink" x="0px" y="0px"
	 width="36.875px" height="36.891px" viewBox="0 0 36.875 36.891" enable-background="new 0 0 36.875 36.891" xml:space="preserve">
<g id="Settings">
	<circle fill="#48F7F5" cx="18.408" cy="18.441" r="6.125"/>
	<path fill="#48F7F5" d="M18.408,8.816c5.309,0,9.625,4.317,9.625,9.625c0,5.307-4.316,9.625-9.625,9.625
		c-5.309,0-9.625-4.318-9.625-9.625C8.783,13.133,13.099,8.816,18.408,8.816 M18.408,3.816L18.408,3.816 M36.875,22.034v-7.188
		h-4.289c-0.348-1.376-0.891-2.676-1.598-3.866l3.029-3.057l-5.111-5.062l-2.998,3.021c-1.191-0.714-2.496-1.263-3.879-1.615V0.001
		h-7.186V4.25c-1.391,0.348-2.701,0.895-3.902,1.608L7.921,2.86L2.86,7.953l2.991,2.979c-0.721,1.203-1.271,2.518-1.625,3.911H0
		v7.188l4.227-0.005c0.352,1.395,0.903,2.711,1.625,3.914L2.86,28.937l5.094,5.079l2.994-2.997c1.198,0.713,2.508,1.259,3.896,1.605
		v4.25l7.188,0.016v-4.28c1.383-0.354,2.688-0.902,3.881-1.617l3.025,3.021l5.078-5.078l-3.031-3.034
		c0.709-1.191,1.254-2.493,1.604-3.871h4.287V22.034z"/>
</g>
</svg>
