<?xml version="1.0" encoding="utf-8"?>
<!-- Generator: Adobe Illustrator 16.0.4, SVG Export Plug-In . SVG Version: 6.00 Build 0)  -->
<!DOCTYPE svg PUBLIC "-//W3C//DTD SVG 1.1//EN" "http://www.w3.org/Graphics/SVG/1.1/DTD/svg11.dtd">
<svg version="1.1" id="PheNode" xmlns="http://www.w3.org/2000/svg" xmlns:xlink="http://www.w3.org/1999/xlink" x="0px" y="0px"
	 width="57.52px" height="39.921px" viewBox="64.149 190.794 57.52 39.921" enable-background="new 64.149 190.794 57.52 39.921"
	 xml:space="preserve">
<g id="Users">
	<circle fill="#48F7F5" cx="92.871" cy="199.3" r="8.506"/>
	<path fill="#48F7F5" d="M92.871,230.715c0,0,2.928,0,6.644,0c1.126-1.588,6.982-17.19,5.405-18.645
		c-1.576-1.455-12.049-1.851-12.049-1.851s-10.473,0.396-12.049,1.851s4.279,17.057,5.405,18.645
		C89.943,230.715,92.871,230.715,92.871,230.715z"/>
	<circle fill="#48F7F5" cx="112.903" cy="208.358" r="6.054"/>
	<path fill="#48F7F5" d="M107.079,216.64c2.538-0.386,5.823-0.511,5.823-0.511s7.454,0.282,8.576,1.317
		c1.122,1.035-3.046,12.138-3.847,13.269c-2.646,0-4.729,0-4.729,0s-2.083,0-4.728,0c-0.482-0.68-1.985-4.238-2.987-7.649
		L107.079,216.64z"/>
	<circle fill="#48F7F5" cx="72.915" cy="208.358" r="6.054"/>
	<path fill="#48F7F5" d="M78.739,216.64c-2.538-0.386-5.823-0.511-5.823-0.511s-7.454,0.282-8.576,1.317
		c-1.122,1.035,3.046,12.138,3.847,13.269c2.645,0,4.729,0,4.729,0s2.083,0,4.728,0c0.482-0.68,1.985-4.238,2.987-7.649
		L78.739,216.64z"/>
</g>
</svg>
