<?xml version="1.0" encoding="utf-8"?>
<!-- Generator: Adobe Illustrator 16.0.4, SVG Export Plug-In . SVG Version: 6.00 Build 0)  -->
<!DOCTYPE svg PUBLIC "-//W3C//DTD SVG 1.1//EN" "http://www.w3.org/Graphics/SVG/1.1/DTD/svg11.dtd">
<svg version="1.1" id="PheNode" xmlns="http://www.w3.org/2000/svg" xmlns:xlink="http://www.w3.org/1999/xlink" x="0px" y="0px"
	 width="57.52px" height="39.921px" viewBox="0 0 57.52 39.921" enable-background="new 0 0 57.52 39.921" xml:space="preserve">
<g id="Users">
	<circle fill="#00E1B4" cx="28.722" cy="8.506" r="8.506"/>
	<path fill="#00E1B4" d="M28.722,39.919c0,0,2.927,0,6.645,0c1.125-1.588,6.981-17.188,5.403-18.645
		c-1.576-1.455-12.048-1.852-12.048-1.852s-10.474,0.396-12.05,1.852c-1.575,1.455,4.279,17.057,5.405,18.645
		C25.794,39.919,28.722,39.919,28.722,39.919z"/>
	<circle fill="#00E1B4" cx="48.753" cy="17.564" r="6.054"/>
	<path fill="#00E1B4" d="M42.931,25.846c2.537-0.388,5.822-0.513,5.822-0.513s7.453,0.283,8.576,1.317
		c1.121,1.035-3.047,12.138-3.849,13.269c-2.646,0-4.729,0-4.729,0s-2.084,0-4.729,0c-0.481-0.68-1.983-4.236-2.985-7.647
		L42.931,25.846z"/>
	<circle fill="#00E1B4" cx="8.766" cy="17.564" r="6.054"/>
	<path fill="#00E1B4" d="M14.59,25.846c-2.537-0.388-5.822-0.513-5.822-0.513s-7.454,0.283-8.576,1.317
		c-1.123,1.036,3.045,12.14,3.847,13.269c2.646,0,4.729,0,4.729,0s2.083,0,4.729,0c0.481-0.68,1.984-4.236,2.986-7.647L14.59,25.846
		z"/>
</g>
</svg>
