<?xml version="1.0" encoding="utf-8"?>
<!-- Generator: Adobe Illustrator 16.0.4, SVG Export Plug-In . SVG Version: 6.00 Build 0)  -->
<!DOCTYPE svg PUBLIC "-//W3C//DTD SVG 1.1//EN" "http://www.w3.org/Graphics/SVG/1.1/DTD/svg11.dtd">
<svg version="1.1" id="PheNode" xmlns="http://www.w3.org/2000/svg" xmlns:xlink="http://www.w3.org/1999/xlink" x="0px" y="0px"
	 width="57.52px" height="39.921px" viewBox="0 0 57.52 39.921" enable-background="new 0 0 57.52 39.921" xml:space="preserve">
<g id="Users">
	<circle fill="#797979" cx="28.722" cy="8.506" r="8.506"/>
	<path fill="#797979" d="M28.722,39.92c0,0,2.927,0,6.644,0c1.125-1.588,6.982-17.189,5.404-18.645
		c-1.576-1.455-12.048-1.852-12.048-1.852s-10.474,0.396-12.05,1.852c-1.575,1.455,4.279,17.057,5.405,18.645
		C25.794,39.92,28.722,39.92,28.722,39.92z"/>
	<circle fill="#797979" cx="48.753" cy="17.564" r="6.054"/>
	<path fill="#797979" d="M42.931,25.846c2.537-0.387,5.822-0.512,5.822-0.512s7.453,0.283,8.576,1.317
		c1.121,1.035-3.047,12.138-3.848,13.269c-2.646,0-4.729,0-4.729,0s-2.084,0-4.729,0c-0.482-0.68-1.984-4.237-2.986-7.648
		L42.931,25.846z"/>
	<circle fill="#797979" cx="8.766" cy="17.564" r="6.054"/>
	<path fill="#797979" d="M14.59,25.846c-2.537-0.387-5.822-0.512-5.822-0.512s-7.454,0.283-8.576,1.317
		C-0.931,27.687,3.237,38.79,4.038,39.92c2.646,0,4.729,0,4.729,0s2.083,0,4.728,0c0.482-0.68,1.985-4.237,2.987-7.648L14.59,25.846
		z"/>
</g>
</svg>
