<?xml version="1.0" encoding="utf-8"?>
<!-- Generator: Adobe Illustrator 16.0.4, SVG Export Plug-In . SVG Version: 6.00 Build 0)  -->
<!DOCTYPE svg PUBLIC "-//W3C//DTD SVG 1.1//EN" "http://www.w3.org/Graphics/SVG/1.1/DTD/svg11.dtd">
<svg version="1.1" id="PheNode" xmlns="http://www.w3.org/2000/svg" xmlns:xlink="http://www.w3.org/1999/xlink" x="0px" y="0px"
	 width="26.664px" height="37.961px" viewBox="0 0 26.664 37.961" enable-background="new 0 0 26.664 37.961" xml:space="preserve">
<g id="Wireless_Sensors">
	<g id="RSS">
		<g id="Layer_8_1_">
		</g>
		<g id="Layer_7_1_">
			<path fill="#48F7F5" d="M22.051,10.154l-2.369,2.369c-1.722-1.658-3.974-2.571-6.359-2.573c-2.389-0.003-4.637,0.901-6.35,2.552
				L4.612,10.14C9.453,5.429,17.205,5.435,22.051,10.154L22.051,10.154z"/>
		</g>
		<g id="Layer_6">
			<path fill="#48F7F5" d="M26.664,5.542l-2.365,2.365C18.208,1.947,8.438,1.935,2.362,7.88L0,5.519
				C7.381-1.731,19.27-1.721,26.664,5.542L26.664,5.542z"/>
		</g>
		<g>
			<path fill="#48F7F5" d="M13.333,37.874c-0.36,0-0.694-0.194-0.872-0.511L4.518,23.21c-0.174-0.311-0.17-0.688,0.008-0.994
				c0.18-0.307,0.509-0.496,0.863-0.496h15.885c0.354,0,0.684,0.188,0.863,0.496c0.18,0.307,0.182,0.684,0.008,0.994l-7.939,14.152
				C14.028,37.679,13.696,37.874,13.333,37.874z"/>
		</g>
	</g>
	<g id="Layer_11">
		<path fill="#48F7F5" d="M17.76,15.027l-4.435,4.479l-4.394-4.457c0,0,1.309-1.963,4.394-1.963S17.76,15.027,17.76,15.027z"/>
	</g>
</g>
</svg>
